<?xml version="1.0" encoding="utf-8"?>
<!-- Generator: Adobe Illustrator 22.0.1, SVG Export Plug-In . SVG Version: 6.00 Build 0)  -->
<svg version="1.1" id="Layer_1" xmlns="http://www.w3.org/2000/svg" xmlns:xlink="http://www.w3.org/1999/xlink" x="0px" y="0px"
	 viewBox="0 0 251.4 45.6" style="enable-background:new 0 0 251.4 45.6;" xml:space="preserve">
<style type="text/css">
	.st0{enable-background:new    ;}
	.st1{fill:#FFFFFF;}
</style>
<g class="st0">
	<path class="st1" d="M15.7,37.3h-5.5V23H7v14.2H1.4V5H7v13.5h3.2V5h5.5V37.3z"/>
	<path class="st1" d="M32.8,37.2H21.5V5h11.3v4.5h-5.7v8.9h4.7v4.5h-4.7v9.9h5.8V37.2z"/>
	<path class="st1" d="M46.4,37.3c-0.3-0.6-0.4-1.3-0.4-1.9c-0.1-2.8-0.1-3.9-0.1-5.9c-0.1-4.8-0.8-5.3-1.4-5.3h-0.8v13.2H38V5h7
		c4.5,0,6.9,2.6,6.9,8.5c0,4.5-0.4,6.9-3.2,8.3c2.4,1.6,2.7,5.3,2.7,7.4v2.4c0,3,0.2,4.2,0.5,5.8H46.4z M44.4,9.4h-0.8v10.2h0.7
		c1.3,0,2.1-1,2.1-5.3C46.4,10.1,45.6,9.4,44.4,9.4z"/>
	<path class="st1" d="M75.4,37.3h-5.4V22.2l-2.4,15.1h-3.4l-2.5-15.1v15.1h-4.6V5h6.5l2.6,19l3-19h6.3V37.3z"/>
	<path class="st1" d="M92.6,37.2H81.2V5h11.3v4.5h-5.7v8.9h4.7v4.5h-4.7v9.9h5.8V37.2z"/>
	<path class="st1" d="M110.1,30.3c0,5.2-2.7,7.4-6.8,7.4c-4.3,0-6-2.6-6-7.3c0-1.8,0.2-3.4,0.3-4.5l4.2,0.5
		c-0.2,1.2-0.3,2.5-0.3,3.6c0,2.7,0.5,3.4,1.5,3.4c0.9,0,1.4-0.7,1.4-2.7v-0.9c0-2.4-0.7-4.6-3.4-7.9c-2.7-3.3-3.8-5.9-3.8-9.6v-0.5
		c0-4.2,1.6-7.4,6.4-7.4c4.6,0,6,2.9,6,7.3c0,1.6-0.1,2.7-0.3,4l-4.2-0.5c0.1-1.1,0.2-1.3,0.2-3c0-2.8-0.4-3.5-1.3-3.5
		c-0.9,0-1.2,0.6-1.2,2.5v0.7c0,1.8,0.7,3.7,2.7,6.3c2.8,3.6,4.6,7.4,4.6,11.6V30.3z"/>
	<path class="st1" d="M135.1,30.3c0,5.2-2.7,7.4-6.8,7.4c-4.3,0-6-2.6-6-7.3c0-1.8,0.2-3.4,0.3-4.5l4.2,0.5
		c-0.2,1.2-0.3,2.5-0.3,3.6c0,2.7,0.5,3.4,1.5,3.4c0.9,0,1.4-0.7,1.4-2.7v-0.9c0-2.4-0.7-4.6-3.4-7.9c-2.7-3.3-3.8-5.9-3.8-9.6v-0.5
		c0-4.2,1.6-7.4,6.4-7.4c4.6,0,6,2.9,6,7.3c0,1.6-0.1,2.7-0.3,4l-4.2-0.5c0.1-1.1,0.2-1.3,0.2-3c0-2.8-0.4-3.5-1.3-3.5
		c-0.9,0-1.2,0.6-1.2,2.5v0.7c0,1.8,0.7,3.7,2.7,6.3c2.8,3.6,4.6,7.4,4.6,11.6V30.3z"/>
	<path class="st1" d="M153.8,30.6c0,5.3-3.2,7.1-6.9,7.1c-3.8,0-7.1-2-7.1-7.1v-19c0-5.3,3.3-7.1,7.1-7.1s6.9,1.8,6.9,7.1V30.6z
		 M148.3,10.5c0-1.3-0.7-1.8-1.4-1.8c-0.8,0-1.4,0.5-1.4,1.8v21.2c0,1.2,0.5,1.8,1.5,1.8c0.8,0,1.3-0.5,1.3-1.7V10.5z"/>
	<path class="st1" d="M165.8,37.7c-4.2,0-6.8-2.1-6.8-6.8V11.4c0-4.7,2.6-7,6.7-7c3.7,0,6.4,1.3,6.4,7.1c0,1.6-0.2,3.2-0.3,4.4
		l-4.2-0.3c0.2-1.1,0.3-2.3,0.3-3.4c0-3-0.7-3.4-1.7-3.4s-1.5,0.4-1.5,2.1v20.6c0,1.5,0.4,2.1,1.6,2.1c0.9,0,1.6-0.6,1.6-3.7
		c0-1-0.1-2.2-0.3-3.4l4.3-0.3c0.2,1.2,0.3,2.6,0.3,4.5C172.1,36.4,169.4,37.7,165.8,37.7z"/>
	<path class="st1" d="M192.1,37.3h-5.8l-2.6-13.2l-0.8,2.1v11.1h-5.6V5h5.6v9.5l3.4-9.5h5.3l-4.5,11.8L192.1,37.3z"/>
	<path class="st1" d="M210.2,37.7c-4.2,0-6.8-2.1-6.8-6.8V11.4c0-4.7,2.6-7,6.7-7c3.7,0,6.4,1.3,6.4,7.1c0,1.6-0.2,3.2-0.3,4.4
		l-4.2-0.3c0.2-1.1,0.3-2.3,0.3-3.4c0-3-0.7-3.4-1.7-3.4s-1.5,0.4-1.5,2.1v20.6c0,1.5,0.4,2.1,1.6,2.1c0.9,0,1.6-0.6,1.6-3.7
		c0-1-0.1-2.2-0.3-3.4l4.3-0.3c0.2,1.2,0.3,2.6,0.3,4.5C216.5,36.4,213.8,37.7,210.2,37.7z"/>
	<path class="st1" d="M235.3,30.6c0,5.3-3.2,7.1-6.9,7.1c-3.8,0-7.1-2-7.1-7.1v-19c0-5.3,3.3-7.1,7.1-7.1s6.9,1.8,6.9,7.1V30.6z
		 M229.7,10.5c0-1.3-0.7-1.8-1.4-1.8c-0.8,0-1.4,0.5-1.4,1.8v21.2c0,1.2,0.5,1.8,1.5,1.8c0.8,0,1.3-0.5,1.3-1.7V10.5z"/>
	<path class="st1" d="M246.5,37.2h-5.3V32h5.3V37.2z"/>
</g>
</svg>
