<?xml version="1.0" encoding="utf-8"?>
<!-- Generator: Adobe Illustrator 22.0.1, SVG Export Plug-In . SVG Version: 6.00 Build 0)  -->
<svg version="1.1" id="Layer_1" xmlns="http://www.w3.org/2000/svg" xmlns:xlink="http://www.w3.org/1999/xlink" x="0px" y="0px"
	 viewBox="0 0 95.8 155.4" style="enable-background:new 0 0 95.8 155.4;" xml:space="preserve">
<style type="text/css">
	.st0{fill:#FAA53D;}
	.st1{fill:#FFFFFF;}
	.st2{opacity:0.8;fill:#E8E8E8;enable-background:new    ;}
	.st3{fill:#B2B2B2;}
	.st4{fill:#FF8600;}
</style>
<g>
	<g>
		<path class="st0" d="M-117,97.8c-7.1,3.5-19.3,9.3-30.4,14.4c0.6,0.9,1.3,1.9,1.9,2.9c10.9-4.8,22.8-10.4,29.7-14.3
			C-116.2,99.8-116.6,98.8-117,97.8z"/>
		<path class="st0" d="M-85.5,170c-5.7-12.1-15-15.5-20.7-37.9c-2.4-9.5-5-18.4-7.6-25.8c-7.4,3.6-18.4,8.9-28.6,13.5
			c10,15.5,23.1,38,20.4,45.4c-4.3,11.7-8.8,21.9-13.6,24.8c-4.8,2.9-23.6,5.9-13.3,12.4c10.2,6.4,32.6-1.9,37.6-10.2
			C-106.2,183.9-79.8,182.2-85.5,170z"/>
		<path class="st0" d="M-119.5,92.3c-1.3-2.4-2.5-4.2-3.5-5.1c0,0-16.2-0.2-29.8,17.1c0,0,0.8,1.2,2.2,3.2
			C-138.8,102.3-125.9,96.3-119.5,92.3z"/>
	</g>
	<path class="st1" d="M-131.6,95.6c0,0-1.2-4.4,11.2-8.7c0,0,5.4-3.1,6.1-12.9c0,0,0.4-11.2,14-7.7c13.7,3.4,14.5,2.6,26.2-5.5
		c0,0,10.9-8.8,11.8-11.2c0.9-2.4-1.4,8.9-17.2,19.6c0,0,16.9-7.6,20.9-14c0,0-6.7,13.1-14.1,19.7C-80.2,81.6-60,69.2-57,63
		c0,0-4.4,21.4-25.3,24.4c0,0,8.9,2.6,11.7-0.5c0,0-1.8,5.7-18.4,4.9c0,0,10.1,3.4,13.8,0.9c0,0-0.4,3-14.7,2.8
		c0,0,4.2,3.6,10.8,2.4c0,0,0.1,3.2-23.9,2.1c0,0,8,4,10.9,3.4c0,0-5.7,7.1-20.9-0.5c0,0,3.5,6,8.2,7.4c0,0-8.8,5.2-19.8-10.1
		c0,0-1.2-5.2-3.8-5.9C-129.3,94.2-130.4,94.4-131.6,95.6z"/>
	<path class="st2" d="M-69,65.9c-1.1,1.2-18.8,21.2-40.5,27c-11,3-14.2,3.7-14.6,3.6l0,0c0.1,0,0.2-0.1,0.5-0.3l0,0
		c3.6-1.9,22.3-11.9,24.1-16.1c0,0,13.8-5.7,22.9-10l0,0l0,0C-72.8,68.4-69.9,66.8-69,65.9z"/>
	<path class="st3" d="M-123.7,96.3c-0.3,0.1-0.4,0.2-0.5,0.3C-124.3,96.6-124.1,96.5-123.7,96.3z"/>
	<path class="st3" d="M-124.2,96.6L-124.2,96.6L-124.2,96.6L-124.2,96.6z"/>
	<path class="st2" d="M-124.2,92c0,0,11.6-2.8,13.5-19.7c0,0,1.5-4.2,4.8-3.9c0,0,17.2,1.5,21.1,1c0,0-18.9,3.3-19.7,5.1
		C-105.3,76.2-112.5,89.3-124.2,92z"/>
	<path class="st2" d="M-118.6,96.3c0,0,18.4,5.9,22.9,7.7c0,0-9.5,3.2-17.9-3.2s-9.4-1.5-9.4-1.5S-122.9,96.8-118.6,96.3z"/>
	<path class="st2" d="M-86.2,98.5c-3.2-0.4-15.2-6.8-15.2-6.8s-11.7,3-15.1,4.1C-112.6,100.3-83,98.9-86.2,98.5z"/>
	<path class="st2" d="M-81.3,79.4c0,0,8.4,1.5,19.2-8.6c0,0-5.7,12.7-23,14.9h-4.7L-81.3,79.4z"/>
	<path class="st2" d="M-91.4,86.5l-4.2,2.6c0,0,10.7,3.6,19.5,0C-76.2,89.1-86.4,88.3-91.4,86.5z"/>
	<path class="st2" d="M-97.2,89.7l-2.2,1.3c0,0,6.2,5.4,15.4,3.1C-84,94.1-93.9,92.1-97.2,89.7z"/>
	<path class="st2" d="M-122.5,101c0,0,6.4,9.3,14.1,9.2h2.2C-106.2,110.2-122.5,99-122.5,101z"/>
	<path class="st2" d="M-123.4,92.7c0,0,11.3-2.4,20.5-16.5c0,0,21.4-7.1,22.4-7l-20.4,9.1C-100.9,78.3-113.2,92.9-123.4,92.7z"/>
	<path class="st2" d="M-122.5,99.9c0,0,1.8-3.6,7.5,1.2c0,0,1.7,2.3,1.7,3.4C-113.2,105.6-118.3,99.3-122.5,99.9z"/>
</g>
<g>
	<g>
		<path class="st0" d="M58.8,51.5c6.9,3.9,18.8,9.5,29.7,14.3c0.6-1,1.3-2,1.9-2.9C79.3,57.8,67.1,52,60,48.5
			C59.6,49.5,59.2,50.5,58.8,51.5z"/>
		<path class="st0" d="M54.3,142.9c5,8.3,27.4,16.6,37.6,10.2c10.3-6.5-8.5-9.5-13.3-12.4s-9.3-13.1-13.6-24.8
			c-2.7-7.4,10.4-29.9,20.4-45.4C75.2,65.9,64.2,60.6,56.8,57c-2.6,7.4-5.2,16.3-7.6,25.8c-5.7,22.4-15,25.8-20.7,37.9
			C22.8,132.9,49.2,134.6,54.3,142.9z"/>
		<path class="st0" d="M93.6,58.2c1.4-2,2.2-3.2,2.2-3.2C82.2,37.7,66,37.9,66,37.9c-1,0.9-2.2,2.7-3.5,5.1
			C68.9,47,81.8,53,93.6,58.2z"/>
	</g>
	<path class="st1" d="M71.4,45c-2.6,0.7-3.8,5.9-3.8,5.9C56.6,66.2,47.8,61,47.8,61c4.7-1.4,8.2-7.4,8.2-7.4
		c-15.2,7.6-20.9,0.5-20.9,0.5C38,54.7,46,50.7,46,50.7c-24,1.1-23.9-2.1-23.9-2.1c6.6,1.2,10.8-2.4,10.8-2.4
		c-14.3,0.2-14.7-2.8-14.7-2.8c3.7,2.5,13.8-0.9,13.8-0.9c-16.6,0.8-18.4-4.9-18.4-4.9c2.8,3.1,11.7,0.5,11.7,0.5
		C4.4,35.1,0,13.7,0,13.7c3,6.2,23.2,18.6,15.7,11.9C8.3,19,1.6,5.9,1.6,5.9c4,6.4,20.9,14,20.9,14C6.7,9.2,4.4-2.1,5.3,0.3
		s11.8,11.2,11.8,11.2c11.7,8.1,12.5,8.9,26.2,5.5c13.6-3.5,14,7.7,14,7.7c0.7,9.8,6.1,12.9,6.1,12.9c12.4,4.3,11.2,8.7,11.2,8.7
		C73.4,45.1,72.3,44.9,71.4,45z"/>
	<path class="st2" d="M19.6,20.8L19.6,20.8L19.6,20.8c9.1,4.3,22.9,10,22.9,10C44.3,35,63,45,66.6,46.9l0,0c0.3,0.2,0.4,0.3,0.5,0.3
		l0,0c-0.4,0.1-3.6-0.6-14.6-3.6c-21.7-5.8-39.4-25.8-40.5-27C12.9,17.5,15.8,19.1,19.6,20.8z"/>
	<path class="st3" d="M67.2,47.3c-0.1-0.1-0.2-0.2-0.5-0.3C67.1,47.2,67.3,47.3,67.2,47.3z"/>
	<path class="st3" d="M67.2,47.3L67.2,47.3L67.2,47.3L67.2,47.3z"/>
	<path class="st2" d="M47.5,25.2c-0.8-1.8-19.7-5.1-19.7-5.1c3.9,0.5,21.1-1,21.1-1c3.3-0.3,4.8,3.9,4.8,3.9
		c1.9,16.9,13.5,19.7,13.5,19.7C55.5,40,48.3,26.9,47.5,25.2z"/>
	<path class="st2" d="M66,50c0,0-1-4.9-9.4,1.5s-17.9,3.2-17.9,3.2c4.5-1.8,22.9-7.7,22.9-7.7C65.9,47.5,66,50,66,50z"/>
	<path class="st2" d="M59.5,46.5c-3.4-1.1-15.1-4.1-15.1-4.1s-12,6.4-15.2,6.8C26,49.6,55.6,51,59.5,46.5z"/>
	<path class="st2" d="M32.8,36.4h-4.7c-17.3-2.2-23-14.9-23-14.9c10.8,10.1,19.2,8.6,19.2,8.6L32.8,36.4z"/>
	<path class="st2" d="M19.1,39.8c8.8,3.6,19.5,0,19.5,0l-4.2-2.6C29.4,39,19.2,39.8,19.1,39.8z"/>
	<path class="st2" d="M27,44.8c9.2,2.3,15.4-3.1,15.4-3.1l-2.2-1.3C36.9,42.8,27,44.8,27,44.8z"/>
	<path class="st2" d="M49.2,60.9h2.2c7.7,0.1,14.1-9.2,14.1-9.2C65.5,49.7,49.2,60.9,49.2,60.9z"/>
	<path class="st2" d="M43.9,29l-20.4-9.1c1-0.1,22.4,7,22.4,7C55.1,41,66.4,43.4,66.4,43.4C56.2,43.6,43.9,29,43.9,29z"/>
	<path class="st2" d="M56.3,55.2c0-1.1,1.7-3.4,1.7-3.4c5.7-4.8,7.5-1.2,7.5-1.2C61.3,50,56.2,56.3,56.3,55.2z"/>
</g>
<rect x="-182.5" y="7.2" class="st0" width="77.6" height="77.6"/>
<rect x="-95.6" y="7.2" class="st4" width="77.6" height="77.6"/>
</svg>
