<svg xmlns="http://www.w3.org/2000/svg" viewBox="0 0 156.39 58.95"><defs><style>.cls-1{fill:#fff;}.cls-2{fill:#00b8ff;}.cls-3{fill:#b2b2b2;}</style></defs><title>Asset 4</title><g id="Layer_2" data-name="Layer 2"><g id="Layer_2-2" data-name="Layer 2"><path class="cls-1" d="M40.73,14.42c-1.39,2.12-1.86,5.09,3,7.75a8.55,8.55,0,0,0,5.39.92c8.18-1.22,35.39-4.67,58.06-.21,2.18.42,4.76.5,6.64-.69,2.25-1.42,4-4.11,3.32-6.73-.45-1.67-2.29-3.71-6.91-5-11.41-3.11-52-2.59-64.32.35A8.57,8.57,0,0,0,40.73,14.42Z"/><path class="cls-1" d="M65.15,44a1.77,1.77,0,0,0-1.49.69,2.6,2.6,0,0,0-.53,1.64,3.29,3.29,0,0,0,.19,1.12,1.86,1.86,0,0,0,.67.86,1.9,1.9,0,0,0,1.16.35A1.77,1.77,0,0,0,66.66,48a2.76,2.76,0,0,0,.5-1.65,2.65,2.65,0,0,0-.51-1.64A1.77,1.77,0,0,0,65.15,44Z"/><path class="cls-1" d="M97.49,44a1.75,1.75,0,0,0-1.49.69,2.54,2.54,0,0,0-.53,1.64,3.06,3.06,0,0,0,.19,1.12,1.91,1.91,0,0,0,.66.86,2,2,0,0,0,1.17.35A1.77,1.77,0,0,0,99,48a2.7,2.7,0,0,0,.51-1.65A2.59,2.59,0,0,0,99,44.69,1.74,1.74,0,0,0,97.49,44Z"/><path class="cls-1" d="M75.17,31.17a1.05,1.05,0,0,0-.44-.2,2.44,2.44,0,0,0-.49-.09h-.78v2.56h.78a3.31,3.31,0,0,0,.49-.08,1.2,1.2,0,0,0,.44-.21,1,1,0,0,0,.28-.38,1.56,1.56,0,0,0,0-1.2A1,1,0,0,0,75.17,31.17Z"/><path class="cls-1" d="M47,27.2S50.25,41.52,55.32,59c8.35-1.92,29.75-4.92,49.9-.22.53-12.58,2.06-24.14,5.28-32.18C110.5,26.55,75.35,18.58,47,27.2Zm44,1.89h5.59v2H93.16V33h3.22v2H93.16v2h3.36v2H90.93Zm-26.57,0H70v2H66.59V33h3.22v2H66.59v2H70v2H64.36Zm-9,0h2.23V33h3.15v-3.9h2.23v9.78H60.71V35H57.56v3.92H55.33Zm5.15,20a1.91,1.91,0,0,1-.66.79,3,3,0,0,1-.93.42,4.32,4.32,0,0,1-1.11.14,4.88,4.88,0,0,1-1-.11A3.45,3.45,0,0,1,56,50c-.22-.1-.42-.21-.6-.31a2.43,2.43,0,0,1-.39-.25l-.12-.11.89-1.49.31.24a4.84,4.84,0,0,0,.71.39,2,2,0,0,0,.9.25c.75,0,1.12-.26,1.12-.77a.52.52,0,0,0-.08-.3.91.91,0,0,0-.28-.27,2.69,2.69,0,0,0-.36-.22l-.51-.25L57,46.68a3,3,0,0,1-1.1-.88,1.84,1.84,0,0,1-.39-1.13A2.17,2.17,0,0,1,56.3,43a2.63,2.63,0,0,1,1.77-.67,4,4,0,0,1,1.24.19,3.75,3.75,0,0,1,.9.36l.29.19-.72,1.42-.24-.14a4.63,4.63,0,0,0-.57-.25,2.28,2.28,0,0,0-.77-.15,1.13,1.13,0,0,0-.69.19.63.63,0,0,0-.24.51.43.43,0,0,0,.11.3,1.76,1.76,0,0,0,.39.3c.18.1.34.19.48.25l.65.28a4,4,0,0,1,1.29.88,1.76,1.76,0,0,1,.54,1.26A2.55,2.55,0,0,1,60.48,49Zm7.48.18a3.74,3.74,0,0,1-2.81,1.17,3.78,3.78,0,0,1-2.83-1.16,4,4,0,0,1-1.11-2.9,3.94,3.94,0,0,1,1.16-2.87,3.89,3.89,0,0,1,5.57,0,3.94,3.94,0,0,1,1.15,2.88A4,4,0,0,1,68,49.22Zm4.17-1.29a2.49,2.49,0,0,0,1.91.7,2.66,2.66,0,0,0,.79-.12,2.37,2.37,0,0,0,.56-.24l.18-.12.76,1.52-.1.07-.31.18a4.06,4.06,0,0,1-.52.22,4.83,4.83,0,0,1-.72.17,5.52,5.52,0,0,1-.92.08,4.24,4.24,0,0,1-2.07-.54,4.34,4.34,0,0,1-1.57-1.47,3.7,3.7,0,0,1-.6-2,3.75,3.75,0,0,1,.35-1.58,4.13,4.13,0,0,1,.94-1.3,4.66,4.66,0,0,1,1.36-.87,4.22,4.22,0,0,1,1.59-.32,5.16,5.16,0,0,1,1.4.18,3.15,3.15,0,0,1,.9.36l.27.18-.76,1.52a1.58,1.58,0,0,0-.2-.14,3.51,3.51,0,0,0-.53-.21A2.44,2.44,0,0,0,74,44a3.24,3.24,0,0,0-1.16.2,2.23,2.23,0,0,0-.81.55,2.76,2.76,0,0,0-.46.74,2.22,2.22,0,0,0-.15.8A2.26,2.26,0,0,0,72.13,47.93Zm9.55,2.31-2.89-3.31v3.31H77V42.42h1.78v3.2l2.69-3.2h2.16l-3.15,3.71,3.64,4.11ZM84,38.81l-2-5.74h-.06l-.47,5.8h-5l-3-3.86v3.86H71.23V29.09h3.5a3.4,3.4,0,0,1,2.3.76A2.66,2.66,0,0,1,77.92,32a2.92,2.92,0,0,1-.54,1.8,2.86,2.86,0,0,1-1.46,1l3.29,4,.86-9.69h2.37l2.17,5.64,2.17-5.64h2.37L90,38.87H87.8l-.46-5.8h-.06l-2,5.74ZM89,47.93a2.49,2.49,0,0,0,1.91.7,2.66,2.66,0,0,0,.79-.12,2.2,2.2,0,0,0,.56-.24l.18-.12.76,1.52-.1.07-.31.18a3.53,3.53,0,0,1-.52.22,4.83,4.83,0,0,1-.72.17,5.43,5.43,0,0,1-.92.08,4.2,4.2,0,0,1-2.06-.54A4.37,4.37,0,0,1,87,48.38a3.78,3.78,0,0,1-.59-2,3.61,3.61,0,0,1,.35-1.58,4,4,0,0,1,.93-1.3,4.66,4.66,0,0,1,1.36-.87,4.22,4.22,0,0,1,1.59-.32,5.11,5.11,0,0,1,1.4.18,3.38,3.38,0,0,1,.91.36l.26.18-.76,1.52s-.11-.08-.19-.14a3.79,3.79,0,0,0-.54-.21,2.44,2.44,0,0,0-.8-.13,3.24,3.24,0,0,0-1.16.2,2.23,2.23,0,0,0-.81.55,2.49,2.49,0,0,0-.45.74,2,2,0,0,0-.16.8A2.26,2.26,0,0,0,89,47.93Zm11.28,1.29a4,4,0,0,1-5.63,0,4,4,0,0,1-1.12-2.9,3.94,3.94,0,0,1,1.16-2.87,3.89,3.89,0,0,1,5.57,0,3.94,3.94,0,0,1,1.15,2.88A4,4,0,0,1,100.29,49.22Zm3.77.85a1.06,1.06,0,0,1-.77.32,1,1,0,0,1-.76-.32,1,1,0,0,1-.32-.76,1,1,0,0,1,.32-.78,1,1,0,0,1,.76-.31,1,1,0,0,1,.77.31,1.08,1.08,0,0,1,.32.78A1.05,1.05,0,0,1,104.06,50.07Zm.36-12.71a2.45,2.45,0,0,1-.83,1,3.87,3.87,0,0,1-1.17.52,5.06,5.06,0,0,1-1.38.18,6.57,6.57,0,0,1-1.26-.13,5,5,0,0,1-1-.33c-.28-.13-.53-.26-.75-.38a4.33,4.33,0,0,1-.48-.32l-.16-.13,1.12-1.88a4.65,4.65,0,0,0,.39.3,5.59,5.59,0,0,0,.88.5,2.72,2.72,0,0,0,1.12.31q1.41,0,1.41-1a.72.72,0,0,0-.1-.38,1.19,1.19,0,0,0-.36-.34,3,3,0,0,0-.45-.27l-.64-.31-.65-.32a3.66,3.66,0,0,1-1.38-1.09,2.36,2.36,0,0,1-.48-1.42,2.7,2.7,0,0,1,1-2.15,3.25,3.25,0,0,1,2.21-.83,5.17,5.17,0,0,1,1.56.23,4.92,4.92,0,0,1,1.12.45l.36.24-.9,1.78-.3-.19a6.21,6.21,0,0,0-.71-.3,2.77,2.77,0,0,0-1-.19,1.35,1.35,0,0,0-.86.24.77.77,0,0,0-.3.64.54.54,0,0,0,.14.37,1.56,1.56,0,0,0,.48.37c.23.13.43.23.61.31l.8.36a4.87,4.87,0,0,1,1.62,1.09,2.21,2.21,0,0,1,.67,1.58A3.31,3.31,0,0,1,104.42,37.36Z"/><g id="_Group_" data-name="&lt;Group&gt;"><path class="cls-2" d="M3,12.6c.09.23,3.42,7.47,13.24,8.72h2.73L14,17.59S9.17,18.48,3,12.6Zm10.18-1s0,0-.05,0h.65L25.67,17s7.16,8.55,13.13,8.39a9.19,9.19,0,0,1-1.68-.58l.2-.45a12.4,12.4,0,0,0,1.84.61c-.92-.27-6.78-2.38-7.79-11.52,0,0-.87-2.48-2.81-2.3,0,0-5.46.46-9.26.6l0-.65a31.28,31.28,0,0,0,6-1.1c8-2.05,8.19,4.5,8.19,4.5.4,5.72,3.58,7.54,3.58,7.54,7.24,2.5,6.55,5.07,6.55,5.07a2.19,2.19,0,0,0-1.88-.76c-1.52.4-2.21,3.45-2.21,3.45C33.12,38.7,28,35.66,28,35.66c2.75-.83,4.79-4.32,4.79-4.32-8.88,4.45-12.21.29-12.21.29,1.7.36,6.37-2,6.37-2-14,.65-14-1.23-14-1.23a7.92,7.92,0,0,0,6.3-1.4c-8.36.11-8.59-1.64-8.59-1.64,2.17,1.46,8.08-.51,8.08-.51C9.3,25.31,8,22.2,8,22c1.63,1.78,6.84.29,6.84.29C2.75,20.56.07,8.42,0,8c1.77,3.62,13.55,10.87,9.17,7C5,11.24,1.16,4,.94,3.48c2.26,3.58,11.29,7.76,12.14,8.14A.08.08,0,0,0,13.13,11.64Zm26.14,16h0A3.21,3.21,0,0,0,39,27.5h0c-2.08-1.1-13-6.94-14.07-9.4,0,0-8.07-3.31-13.42-5.85,0,0,0,0,0,0a0,0,0,0,1,0,0A24.53,24.53,0,0,1,7,9.74c.65.72,11,12.39,23.71,15.79C37.19,27.25,39.05,27.68,39.27,27.65Zm-1.7,1.61s-.07-1.52-2.46-1.79c0,0-10.06,3.45-12.5,4.5a10.72,10.72,0,0,0,9.79-1.86C37,26.4,37.57,29.26,37.57,29.26Zm0,1.64s-1-2.17-2.66-.94c0,0-2.33,3.84-4.3,4.92S34.22,34.94,37.57,30.9Zm-4.2-3.25c.06,0-.09-.06-.32-.15C33.21,27.56,33.3,27.63,33.37,27.65Zm-2.53.07a1.47,1.47,0,0,1,1.5-.85c-2-.63-6.4-2.06-6.4-2.06s-7,3.76-8.9,4S22,30.31,30.84,27.72Zm-7.09-2.93-1.14-.6c-1.72,1.12-6.82,2-6.82,2A10,10,0,0,0,23.75,24.79Zm-1.59-1.36-2.39-1.26a51,51,0,0,1-8.57,1.26C16.17,25.15,22.16,23.43,22.16,23.43Z"/><path class="cls-1" d="M39.27,27.65h0c-.25,0-2.1-.4-8.57-2.12C18.05,22.13,7.67,10.46,7,9.74a23.43,23.43,0,0,0,4.41,2.46l0,0,0,0c5.35,2.54,13.42,5.85,13.42,5.85,1.05,2.46,12,8.3,14.07,9.4h0A2.25,2.25,0,0,1,39.27,27.65Z"/><path class="cls-1" d="M38.82,25.35c-6,.13-13.13-8.39-13.13-8.39L13.75,11.62a21.5,21.5,0,0,1,2.4.65c3.78,1.16,10.71,3.44,10.71,3.44a23.31,23.31,0,0,0,10.28,9.06A9.19,9.19,0,0,0,38.82,25.35Z"/><path class="cls-1" d="M39.16,24.93a12.4,12.4,0,0,1-1.84-.61c-5.68-2.39-9.12-8.7-9.59-9.64s-10.2-2.77-11.43-3l-.09,0a29.46,29.46,0,0,0,3.09,0c3.8-.14,9.26-.6,9.26-.6,2-.18,2.81,2.3,2.81,2.3C32.38,22.55,38.24,24.66,39.16,24.93Z"/><path class="cls-2" d="M37.32,24.32l-.2.45a23.55,23.55,0,0,1-10.28-9.06s-6.94-2.28-10.72-3.44l.18-.56c1.21.22,10.94,2,11.43,3S31.64,21.93,37.32,24.32Z"/><path class="cls-1" d="M35.11,27.5c2.39.27,2.46,1.79,2.46,1.79s-.58-2.84-5.17.87A10.73,10.73,0,0,1,22.61,32C25.05,30.92,35.11,27.5,35.11,27.5Z"/><path class="cls-1" d="M34.89,30c1.72-1.23,2.66.94,2.66.94-3.33,4-8.93,5-7,4S34.89,30,34.89,30Z"/><path class="cls-3" d="M33.05,27.5c.23.09.38.15.32.15S33.21,27.56,33.05,27.5Z"/><path class="cls-1" d="M32.34,26.87a1.47,1.47,0,0,0-1.5.85C22,30.31,15.21,29,17,28.79s8.9-4,8.9-4Z"/><path class="cls-1" d="M22.61,24.19l1.14.6a10,10,0,0,1-8,1.45S20.89,25.31,22.61,24.19Z"/><path class="cls-1" d="M19.77,22.17l2.39,1.26s-6,1.72-11,0A51,51,0,0,0,19.77,22.17Z"/><path class="cls-2" d="M16.21,11.69a.16.16,0,0,1,.09,0l-.18.56a19.89,19.89,0,0,0-2.39-.65h-.65C3.89,5.38,2.57-1.22,3.09.19S10,6.74,10,6.74c4.54,3.16,6.26,4.41,9.28,4.32l0,.65A29.46,29.46,0,0,1,16.21,11.69Z"/><path class="cls-1" d="M18.92,21.32H16.19C6.37,20.05,3.06,12.83,3,12.6c6.22,5.88,11,5,11,5Z"/></g><g id="_Group_2" data-name="&lt;Group&gt;"><path class="cls-2" d="M142.41,17.59l-4.94,3.73h2.73c9.81-1.25,13.14-8.49,13.23-8.72C147.22,18.48,142.41,17.59,142.41,17.59Zm.89-6c.85-.38,9.89-4.56,12.15-8.14-.23.47-4,7.76-8.23,11.52-4.39,3.91,7.4-3.34,9.17-7-.07.38-2.75,12.52-14.81,14.25,0,0,5.21,1.49,6.84-.29-.06.2-1.34,3.31-10.75,2.86,0,0,5.9,2,8.07.51,0,0-.22,1.75-8.59,1.64a7.93,7.93,0,0,0,6.31,1.4s.07,1.88-14,1.23c0,0,4.68,2.35,6.38,2,0,0-3.34,4.16-12.21-.29,0,0,2,3.49,4.78,4.32,0,0-5.16,3-11.58-5.9,0,0-.69-3.05-2.22-3.45a2.18,2.18,0,0,0-1.87.76s-.7-2.57,6.55-5.07c0,0,3.17-1.82,3.58-7.54,0,0,.22-6.55,8.18-4.5a31.36,31.36,0,0,0,6,1.1l0,.65c-3.8-.14-9.26-.6-9.26-.6-2-.18-2.82,2.3-2.82,2.3-1,9.14-6.86,11.25-7.78,11.52a12.67,12.67,0,0,0,1.83-.61l.2.45a9.28,9.28,0,0,1-1.67.58c6,.16,13.12-8.39,13.12-8.39l11.95-5.34h.64s0,0,0,0A.06.06,0,0,0,143.3,11.62ZM125.64,25.53c12.68-3.4,23-15.07,23.7-15.79a23.94,23.94,0,0,1-4.4,2.46s0,0,0,0,0,0,0,0c-5.34,2.54-13.42,5.85-13.42,5.85-1.05,2.46-12,8.3-14.06,9.4h0a1.67,1.67,0,0,0-.29.15h0C117.34,27.68,119.2,27.25,125.64,25.53ZM124,30.11a10.74,10.74,0,0,0,9.8,1.86c-2.44-1-12.5-4.5-12.5-4.5-2.4.27-2.46,1.79-2.46,1.79S119.4,26.4,124,30.11Zm1.79,4.77c-2-1.08-4.29-4.92-4.29-4.92-1.7-1.23-2.66.94-2.66.94C122.17,34.94,127.74,36,125.77,34.88Zm-2.44-7.38c-.22.09-.38.15-.31.15S123.18,27.56,123.33,27.5Zm16,1.29c-1.86-.22-8.91-4-8.91-4s-4.36,1.43-6.39,2.06a1.47,1.47,0,0,1,1.5.85C134.4,30.31,141.18,29,139.35,28.79Zm1.25-2.55s-5.1-.93-6.82-2l-1.14.6A10,10,0,0,0,140.6,26.24Zm4.58-2.81a50.74,50.74,0,0,1-8.56-1.26l-2.4,1.26S140.22,25.15,145.18,23.43Z"/><path class="cls-1" d="M117.12,27.65h0c.24,0,2.1-.4,8.56-2.12,12.66-3.4,23-15.07,23.68-15.79A23.23,23.23,0,0,1,145,12.2l0,0,0,0c-5.34,2.54-13.41,5.85-13.41,5.85-1.06,2.46-12,8.3-14.07,9.4h0A1.43,1.43,0,0,0,117.12,27.65Z"/><path class="cls-1" d="M117.56,25.35c6,.13,13.13-8.39,13.13-8.39l11.94-5.34a22.31,22.31,0,0,0-2.39.65c-3.78,1.16-10.71,3.44-10.71,3.44a23.27,23.27,0,0,1-10.29,9.06A9.19,9.19,0,0,1,117.56,25.35Z"/><path class="cls-1" d="M117.23,24.93a12.67,12.67,0,0,0,1.83-.61c5.68-2.39,9.13-8.7,9.6-9.64s10.19-2.77,11.42-3c0,0,.07,0,.09,0a29.22,29.22,0,0,1-3.08,0c-3.8-.14-9.26-.6-9.26-.6-2-.18-2.82,2.3-2.82,2.3C124,22.55,118.15,24.66,117.23,24.93Z"/><path class="cls-2" d="M119.06,24.32l.2.45a23.51,23.51,0,0,0,10.29-9.06s6.93-2.28,10.71-3.44l-.18-.56c-1.2.22-10.93,2-11.42,3S124.74,21.93,119.06,24.32Z"/><path class="cls-1" d="M121.28,27.5c-2.4.27-2.46,1.79-2.46,1.79s.58-2.84,5.16.87a10.75,10.75,0,0,0,9.8,1.85C131.34,30.92,121.28,27.5,121.28,27.5Z"/><path class="cls-1" d="M121.5,30c-1.72-1.23-2.66.94-2.66.94,3.33,4,8.92,5,7,4S121.5,30,121.5,30Z"/><path class="cls-3" d="M123.33,27.5c-.22.09-.38.15-.31.15S123.18,27.56,123.33,27.5Z"/><path class="cls-1" d="M124.05,26.87a1.47,1.47,0,0,1,1.5.85c8.85,2.59,15.63,1.28,13.8,1.07s-8.91-4-8.91-4Z"/><path class="cls-1" d="M133.78,24.19l-1.14.6a10,10,0,0,0,8,1.45S135.5,25.31,133.78,24.19Z"/><path class="cls-1" d="M136.62,22.17l-2.4,1.26s6,1.72,11,0A50.74,50.74,0,0,1,136.62,22.17Z"/><path class="cls-2" d="M140.17,11.69l-.09,0,.18.56a20.33,20.33,0,0,1,2.4-.65h.64c9.19-6.24,10.51-12.84,10-11.43s-6.91,6.55-6.91,6.55c-4.54,3.16-6.26,4.41-9.28,4.32l0,.65A29.22,29.22,0,0,0,140.17,11.69Z"/><path class="cls-1" d="M137.47,21.32h2.73c9.81-1.27,13.12-8.49,13.23-8.72-6.21,5.88-11,5-11,5Z"/></g></g></g></svg>