<svg xmlns="http://www.w3.org/2000/svg" viewBox="0 0 100.1 60.53"><defs><style>.cls-1,.cls-4{fill:#fff;}.cls-1{stroke:#00b8ff;stroke-miterlimit:10;stroke-width:0.25px;}.cls-2{fill:#faa53d;}.cls-3{fill:#00b8ff;}.cls-5{fill:#b2b2b2;}.cls-6{fill:none;}.cls-7{fill:#009ae0;}</style></defs><title>Asset 5</title><g id="Layer_2" data-name="Layer 2"><g id="Layer_2-2" data-name="Layer 2"><path class="cls-1" d="M66.54,37.26A62.4,62.4,0,0,1,70.73,17s-22.5-5.1-40.67.41c0,0,4.33,10.51,5.35,20.32l15,17.49S65.83,39.33,66.54,37.26Z"/><path class="cls-2" d="M38.13,24.08v2.17H36.9v-5.4h1.23V23h1.74V20.85H41.1v5.4H39.87V24.08Z"/><path class="cls-2" d="M45,20.85v1.08H43.12V23h1.77v1.08H43.12v1.09H45v1.08H41.89v-5.4Z"/><path class="cls-2" d="M45.68,20.85h1.93a1.89,1.89,0,0,1,1.27.42,1.47,1.47,0,0,1,.49,1.18,1.63,1.63,0,0,1-.3,1,1.59,1.59,0,0,1-.81.57l1.86,2.23H48.56l-1.65-2.14v2.14H45.68Zm1.23,2.39h.43a1.57,1.57,0,0,0,.27,0,.53.53,0,0,0,.24-.11.72.72,0,0,0,.16-.21.81.81,0,0,0,.06-.33A.9.9,0,0,0,48,22.2a.56.56,0,0,0-.16-.2.67.67,0,0,0-.24-.12,1.47,1.47,0,0,0-.27,0h-.43Z"/><path class="cls-2" d="M54.82,26.25l-.25-3.2h0l-1.1,3.16H52.7l-1.11-3.16h0l-.26,3.2H50.07l.49-5.4h1.31L53.06,24l1.2-3.11h1.31l.48,5.4Z"/><path class="cls-2" d="M59.63,20.85v1.08H57.78V23h1.78v1.08H57.78v1.09h1.85v1.08H56.55v-5.4Z"/><path class="cls-2" d="M62.33,20.75a3.14,3.14,0,0,1,.86.13,3.72,3.72,0,0,1,.62.25l.19.13-.49,1-.17-.1A3.18,3.18,0,0,0,63,22a1.58,1.58,0,0,0-.54-.11.73.73,0,0,0-.47.13.44.44,0,0,0-.17.35.32.32,0,0,0,.08.21.94.94,0,0,0,.27.2l.33.18.45.19a2.66,2.66,0,0,1,.89.61,1.18,1.18,0,0,1,.37.86,1.94,1.94,0,0,1-.17.82,1.34,1.34,0,0,1-.45.54,2.12,2.12,0,0,1-.65.29,3,3,0,0,1-.76.09,3.26,3.26,0,0,1-.7-.07,3.2,3.2,0,0,1-.57-.18l-.41-.21a2.07,2.07,0,0,1-.27-.18l-.08-.07.61-1,.22.16a3.28,3.28,0,0,0,.49.28,1.49,1.49,0,0,0,.61.17c.52,0,.78-.18.78-.53a.46.46,0,0,0-.05-.21.74.74,0,0,0-.2-.19l-.25-.15L62,24l-.36-.17a2,2,0,0,1-.76-.61,1.27,1.27,0,0,1-.27-.78,1.5,1.5,0,0,1,.54-1.19A1.83,1.83,0,0,1,62.33,20.75Z"/><path class="cls-2" d="M38.42,28.13a2.24,2.24,0,0,1,.68.1,3,3,0,0,1,.5.2l.15.11-.39.78-.13-.08a2,2,0,0,0-.32-.13,1.14,1.14,0,0,0-.43-.09.61.61,0,0,0-.38.11.36.36,0,0,0-.13.28.27.27,0,0,0,.06.17,1.14,1.14,0,0,0,.22.16l.26.14.36.15a2,2,0,0,1,.71.49,1,1,0,0,1,.3.69,1.48,1.48,0,0,1-.13.65,1,1,0,0,1-.37.43,1.59,1.59,0,0,1-.51.24,2.45,2.45,0,0,1-.62.07,3.31,3.31,0,0,1-.55-.05,2.26,2.26,0,0,1-.46-.15l-.33-.17a1.08,1.08,0,0,1-.21-.14L36.63,32l.49-.82.18.13a2.66,2.66,0,0,0,.39.22,1.12,1.12,0,0,0,.49.13c.41,0,.62-.14.62-.42a.33.33,0,0,0,0-.17A.47.47,0,0,0,38.6,31l-.2-.12-.28-.13-.29-.14a1.67,1.67,0,0,1-.61-.49,1,1,0,0,1-.21-.62,1.17,1.17,0,0,1,.43-.95A1.43,1.43,0,0,1,38.42,28.13Z"/><path class="cls-2" d="M40.15,30.36a2.15,2.15,0,0,1,.64-1.58,2.06,2.06,0,0,1,1.53-.65,2,2,0,0,1,1.54.65,2.33,2.33,0,0,1,0,3.18,2.21,2.21,0,0,1-3.11,0A2.22,2.22,0,0,1,40.15,30.36Zm1.06,0a1.72,1.72,0,0,0,.1.62,1.08,1.08,0,0,0,.37.48,1,1,0,0,0,.64.19,1,1,0,0,0,.83-.38,1.6,1.6,0,0,0,0-1.81,1.09,1.09,0,0,0-1.65,0A1.45,1.45,0,0,0,41.21,30.36Z"/><path class="cls-2" d="M47.23,31.63a1.54,1.54,0,0,0,.43-.06,1.69,1.69,0,0,0,.31-.13l.1-.07.42.84-.06,0-.17.09-.28.13-.4.09a2.78,2.78,0,0,1-.51,0,2.41,2.41,0,0,1-1.14-.29,2.36,2.36,0,0,1-.87-.82,2.11,2.11,0,0,1-.13-2,2.35,2.35,0,0,1,.51-.72,2.64,2.64,0,0,1,.75-.47,2.27,2.27,0,0,1,.88-.18,2.78,2.78,0,0,1,.78.1,1.72,1.72,0,0,1,.49.2l.15.1-.42.83L48,29.29a1.57,1.57,0,0,0-.29-.12,1.35,1.35,0,0,0-.44-.07,1.83,1.83,0,0,0-.64.11,1.16,1.16,0,0,0-.45.31,1.41,1.41,0,0,0-.25.4,1.15,1.15,0,0,0-.09.44,1.25,1.25,0,0,0,.37.88A1.4,1.4,0,0,0,47.23,31.63Z"/><path class="cls-2" d="M52.8,32.52H51.44l-1.59-1.83v1.83h-1V28.21h1V30l1.48-1.76h1.2l-1.74,2Z"/><path class="cls-2" d="M56.54,31.63a1.61,1.61,0,0,0,.44-.06,2.06,2.06,0,0,0,.31-.13l.1-.07.42.84-.06,0-.17.09-.28.13-.4.09a2.85,2.85,0,0,1-.51,0,2.41,2.41,0,0,1-1.14-.29,2.36,2.36,0,0,1-.87-.82,2,2,0,0,1-.13-2,2.35,2.35,0,0,1,.51-.72,2.64,2.64,0,0,1,.75-.47,2.27,2.27,0,0,1,.88-.18,2.66,2.66,0,0,1,.77.1,1.81,1.81,0,0,1,.5.2l.15.1-.42.83-.11-.07L57,29.17a1.41,1.41,0,0,0-.45-.07,1.87,1.87,0,0,0-.64.11,1.2,1.2,0,0,0-.44.31,1.22,1.22,0,0,0-.25.4,1.15,1.15,0,0,0-.09.44,1.21,1.21,0,0,0,.37.88A1.37,1.37,0,0,0,56.54,31.63Z"/><path class="cls-2" d="M58,30.36a2.15,2.15,0,0,1,.64-1.58,2.1,2.1,0,0,1,1.54-.65,2.06,2.06,0,0,1,1.54.65,2.18,2.18,0,0,1,.63,1.58,2.24,2.24,0,0,1-.62,1.6,2.21,2.21,0,0,1-3.11,0A2.23,2.23,0,0,1,58,30.36Zm1.06,0a1.71,1.71,0,0,0,.11.62,1,1,0,0,0,1,.67,1,1,0,0,0,.83-.38,1.51,1.51,0,0,0,.28-.91,1.45,1.45,0,0,0-.29-.9.94.94,0,0,0-.82-.38,1,1,0,0,0-.83.38A1.45,1.45,0,0,0,59.05,30.36Z"/><path class="cls-2" d="M63.37,31.4a.58.58,0,0,1,.43.18A.61.61,0,0,1,64,32a.61.61,0,0,1-.17.42.61.61,0,0,1-.43.17.61.61,0,0,1-.42-.17.58.58,0,0,1-.18-.42.58.58,0,0,1,.18-.43A.58.58,0,0,1,63.37,31.4Z"/><path class="cls-1" d="M26.07,9.23c-.89,1.35-1.19,3.26,1.93,5a5.52,5.52,0,0,0,3.45.59c5.24-.78,22.65-3,37.17-.14a6,6,0,0,0,4.25-.44c1.43-.9,2.57-2.63,2.12-4.31-.29-1.06-1.47-2.37-4.42-3.18-7.31-2-33.31-1.65-41.17.23A5.44,5.44,0,0,0,26.07,9.23Z"/><g id="_Group_" data-name="&lt;Group&gt;"><path class="cls-3" d="M1.89,8.07a10.67,10.67,0,0,0,8.47,5.58h1.75L9,11.26S5.87,11.83,1.89,8.07ZM8.4,7.45h.39l7.64,3.42s4.58,5.47,8.4,5.37a6.37,6.37,0,0,1-1.07-.38l.13-.28a8.89,8.89,0,0,0,1.17.38c-.58-.17-4.33-1.51-5-7.37,0,0-.56-1.59-1.8-1.47,0,0-3.49.3-5.93.38V7.08a20.77,20.77,0,0,0,3.86-.7c5.1-1.32,5.24,2.87,5.24,2.87.26,3.67,2.29,4.83,2.29,4.83,4.64,1.6,4.2,3.25,4.2,3.25a1.41,1.41,0,0,0-1.21-.49c-1,.26-1.41,2.21-1.41,2.21-4.11,5.72-7.42,3.77-7.42,3.77,1.76-.53,3.06-2.76,3.06-2.76-5.68,2.85-7.81.19-7.81.19,1.09.23,4.08-1.28,4.08-1.28-9,.42-8.95-.78-8.95-.78a5.09,5.09,0,0,0,4-.91c-5.35.08-5.5-1-5.5-1,1.39.93,5.17-.33,5.17-.33-6,.29-6.84-1.7-6.88-1.83,1,1.14,4.38.18,4.38.18C1.76,13.16,0,5.39,0,5.15c1.13,2.32,8.67,7,5.87,4.45S.74,2.53.6,2.23c1.45,2.29,7.23,5,7.77,5.21ZM25.13,17.7h0a1,1,0,0,0-.18-.1h0c-1.33-.7-8.33-4.44-9-6,0,0-5.17-2.12-8.59-3.75a0,0,0,0,1,0,0,0,0,0,0,1,0,0A15,15,0,0,1,4.51,6.23c.41.46,7.06,7.93,15.17,10.11C23.8,17.44,25,17.71,25.13,17.7Zm-1.08,1s-.05-1-1.58-1.14c0,0-6.44,2.2-8,2.87a6.87,6.87,0,0,0,6.27-1.19C23.67,16.9,24.05,18.73,24.05,18.73Zm0,1.05s-.62-1.39-1.71-.61c0,0-1.49,2.47-2.74,3.15S21.9,22.37,24.05,19.78ZM21.36,17.7s-.06,0-.2-.1C21.26,17.64,21.31,17.69,21.36,17.7Zm-1.62,0a.94.94,0,0,1,1-.54c-1.31-.4-4.1-1.32-4.1-1.32s-4.51,2.41-5.69,2.55S14.07,19.4,19.74,17.74ZM15.2,15.87l-.73-.39a18,18,0,0,1-4.36,1.32A6.41,6.41,0,0,0,15.2,15.87Zm-1-.88-1.53-.8a32.61,32.61,0,0,1-5.48.8A13.31,13.31,0,0,0,14.18,15Z"/><path class="cls-4" d="M25.13,17.7h0c-.15,0-1.34-.26-5.48-1.36C11.55,14.16,4.91,6.69,4.49,6.23A14.65,14.65,0,0,0,7.31,7.81h0v0c3.42,1.63,8.59,3.75,8.59,3.75.67,1.57,7.67,5.31,9,6h0A.83.83,0,0,1,25.13,17.7Z"/><path class="cls-4" d="M24.85,16.23c-3.82.08-8.4-5.37-8.4-5.37L8.8,7.44a12.12,12.12,0,0,1,1.53.41c2.42.75,6.86,2.21,6.86,2.21a14.92,14.92,0,0,0,6.58,5.79A6.26,6.26,0,0,0,24.85,16.23Z"/><path class="cls-4" d="M25.06,16a8.89,8.89,0,0,1-1.17-.38C20.25,14,18.05,10,17.75,9.4s-6.53-1.78-7.32-1.91h0a17.28,17.28,0,0,0,2,0c2.44-.08,5.93-.38,5.93-.38,1.26-.12,1.8,1.47,1.8,1.47C20.73,14.44,24.48,15.78,25.06,16Z"/><path class="cls-3" d="M23.89,15.57l-.13.28a15.06,15.06,0,0,1-6.58-5.79S12.74,8.6,10.32,7.85l.11-.36c.78.15,7,1.28,7.32,1.91S20.25,14,23.89,15.57Z"/><path class="cls-4" d="M22.47,17.6c1.53.17,1.58,1.14,1.58,1.14s-.38-1.81-3.31.56a6.87,6.87,0,0,1-6.27,1.19C16,19.79,22.47,17.6,22.47,17.6Z"/><path class="cls-4" d="M22.33,19.19c1.1-.79,1.7.6,1.7.6-2.13,2.58-5.71,3.23-4.45,2.55A11.32,11.32,0,0,0,22.33,19.19Z"/><path class="cls-5" d="M21.16,17.6c.14.06.24.1.2.1S21.26,17.64,21.16,17.6Z"/><path class="cls-4" d="M20.7,17.2a.94.94,0,0,0-1,.54c-5.67,1.66-10,.82-8.83.69s5.69-2.55,5.69-2.55Z"/><path class="cls-4" d="M14.47,15.48l.73.39a6.41,6.41,0,0,1-5.09.93A18,18,0,0,0,14.47,15.48Z"/><path class="cls-4" d="M12.65,14.19l1.53.8a13.31,13.31,0,0,1-7,0A32.61,32.61,0,0,0,12.65,14.19Z"/><path class="cls-3" d="M10.38,7.48h0l-.11.36a11.67,11.67,0,0,0-1.53-.41H8.37C2.49,3.44,1.65-.78,2,.12S6.4,4.32,6.4,4.32c2.9,2,4,2.82,5.94,2.76v.41A17.28,17.28,0,0,1,10.38,7.48Z"/><path class="cls-4" d="M12.11,13.65H10.36A10.74,10.74,0,0,1,1.89,8.07c4,3.76,7.06,3.2,7.06,3.2Z"/></g><g id="_Group_2" data-name="&lt;Group&gt;"><path class="cls-3" d="M91.15,11.26,88,13.65h1.74a10.68,10.68,0,0,0,8.48-5.58C94.23,11.83,91.15,11.26,91.15,11.26Zm.57-3.82c.55-.25,6.33-2.92,7.77-5.21-.14.3-2.59,5-5.26,7.37S99,7.47,100.1,5.15c0,.24-1.76,8-9.48,9.11,0,0,3.34,1,4.38-.18,0,.13-.86,2.12-6.88,1.83,0,0,3.77,1.26,5.16.33,0,0-.14,1.12-5.49,1a5.07,5.07,0,0,0,4,.91s.05,1.2-8.94.78c0,0,3,1.51,4.08,1.28,0,0-2.14,2.66-7.82-.19,0,0,1.3,2.23,3.06,2.76,0,0-3.3,1.95-7.41-3.77,0,0-.44-1.95-1.42-2.21a1.39,1.39,0,0,0-1.2.49s-.44-1.65,4.19-3.25c0,0,2-1.16,2.29-4.83,0,0,.15-4.19,5.24-2.87a20.84,20.84,0,0,0,3.87.7l0,.41c-2.43-.08-5.92-.38-5.92-.38C80.57,7,80,8.58,80,8.58c-.64,5.86-4.39,7.2-5,7.37a9.55,9.55,0,0,0,1.18-.38l.13.28a6.26,6.26,0,0,1-1.08.38c3.82.1,8.4-5.37,8.4-5.37l7.65-3.42Zm-11.31,8.9c8.12-2.18,14.76-9.65,15.18-10.11a15,15,0,0,1-2.82,1.58s0,0,0,0,0,0,0,0c-3.42,1.63-8.59,3.75-8.59,3.75-.67,1.57-7.67,5.31-9,6h0c-.1,0-.16.09-.19.1h0C75.1,17.71,76.29,17.44,80.41,16.34Zm-1,2.93a6.85,6.85,0,0,0,6.26,1.19c-1.56-.67-8-2.87-8-2.87-1.53.17-1.57,1.14-1.57,1.14S76.42,16.9,79.36,19.27Zm1.14,3.05c-1.26-.68-2.75-3.15-2.75-3.15-1.09-.78-1.7.61-1.7.61C78.2,22.37,81.76,23,80.5,22.32ZM78.94,17.6c-.14.06-.24.1-.2.1S78.84,17.64,78.94,17.6Zm10.25.83c-1.19-.14-5.7-2.55-5.7-2.55s-2.79.92-4.09,1.32a1,1,0,0,1,1,.54C86,19.4,90.36,18.56,89.19,18.43ZM90,16.8a18.11,18.11,0,0,1-4.37-1.32l-.73.39A6.44,6.44,0,0,0,90,16.8ZM92.92,15a32.75,32.75,0,0,1-5.48-.8l-1.53.8A13.32,13.32,0,0,0,92.92,15Z"/><path class="cls-4" d="M75,17.7h0c.16,0,1.35-.26,5.48-1.36,8.1-2.18,14.75-9.65,15.16-10.11a14.32,14.32,0,0,1-2.82,1.58h0l0,0c-3.42,1.63-8.59,3.75-8.59,3.75-.67,1.57-7.67,5.31-9,6h0A1.71,1.71,0,0,0,75,17.7Z"/><path class="cls-4" d="M75.25,16.23c3.82.08,8.4-5.37,8.4-5.37l7.64-3.42a12.62,12.62,0,0,0-1.53.41c-2.42.75-6.85,2.21-6.85,2.21a14.88,14.88,0,0,1-6.59,5.79A6.37,6.37,0,0,1,75.25,16.23Z"/><path class="cls-4" d="M75,16a9.55,9.55,0,0,0,1.18-.38C79.84,14,82.05,10,82.35,9.4s6.52-1.78,7.31-1.91h.06a17.5,17.5,0,0,1-2,0c-2.43-.08-5.92-.38-5.92-.38C80.56,7,80,8.58,80,8.58,79.37,14.44,75.62,15.78,75,16Z"/><path class="cls-3" d="M76.21,15.57l.13.28a15.12,15.12,0,0,0,6.58-5.79s4.44-1.46,6.86-2.21l-.12-.36c-.77.15-7,1.28-7.31,1.91S79.84,14,76.21,15.57Z"/><path class="cls-4" d="M77.62,17.6c-1.53.17-1.57,1.14-1.57,1.14s.37-1.81,3.31.56a6.85,6.85,0,0,0,6.26,1.19C84.06,19.79,77.62,17.6,77.62,17.6Z"/><path class="cls-4" d="M77.77,19.19c-1.11-.79-1.71.6-1.71.6,2.14,2.58,5.71,3.23,4.45,2.55A11.41,11.41,0,0,1,77.77,19.19Z"/><path class="cls-5" d="M78.94,17.6c-.14.06-.24.1-.2.1S78.84,17.64,78.94,17.6Z"/><path class="cls-4" d="M79.4,17.2a1,1,0,0,1,1,.54c5.67,1.66,10,.82,8.83.69s-5.7-2.55-5.7-2.55Z"/><path class="cls-4" d="M85.62,15.48l-.73.39a6.44,6.44,0,0,0,5.1.93A18.11,18.11,0,0,1,85.62,15.48Z"/><path class="cls-4" d="M87.44,14.19l-1.53.8a13.32,13.32,0,0,0,7,0A32.75,32.75,0,0,1,87.44,14.19Z"/><path class="cls-3" d="M89.72,7.48h-.06l.12.36a11.67,11.67,0,0,1,1.53-.41h.41c5.89-4,6.73-8.22,6.4-7.32s-4.42,4.2-4.42,4.2c-2.91,2-4,2.82-5.94,2.76l0,.41A17.5,17.5,0,0,0,89.72,7.48Z"/><path class="cls-4" d="M88,13.65h1.74a10.77,10.77,0,0,0,8.48-5.58c-4,3.76-7.06,3.2-7.06,3.2Z"/></g><path class="cls-6" d="M47,60.3a47.85,47.85,0,0,0,6.75.19l-3.43-2.86Z"/><polygon class="cls-7" points="67.6 43.47 53.65 54.65 49.79 51.55 49.1 51 66.46 37.06 66.55 37.58 67.6 43.47"/><path class="cls-7" d="M48.35,55.33l-2.5-2.08-6.33,5.07A51.26,51.26,0,0,0,47,59.63L50.32,57Z"/><path class="cls-3" d="M61.55,58.73a40.41,40.41,0,0,1-7.8,1.09L50.32,57l-2-1.64-2.5-2.09L34.39,43.72l1.14-6.66L52.91,51.53l4.55,3.8Z"/></g></g></svg>