<?xml version="1.0" encoding="utf-8"?>
<!-- Generator: Adobe Illustrator 22.0.1, SVG Export Plug-In . SVG Version: 6.00 Build 0)  -->
<svg version="1.1" id="Layer_1" xmlns="http://www.w3.org/2000/svg" xmlns:xlink="http://www.w3.org/1999/xlink" x="0px" y="0px"
	 viewBox="0 0 304.7 155.3" style="enable-background:new 0 0 304.7 155.3;" xml:space="preserve">
<style type="text/css">
	.st0{fill:#FAA53D;}
	.st1{fill:#FFFFFF;}
	.st2{font-family:'BalboaPlus-Fill';}
	.st3{font-size:42px;}
	.st4{fill:#FF8600;}
</style>
<g id="Layer_1_1_">
</g>
<g>
	<g>
		<path class="st0" d="M244.7,48.4c-7.1,3.5-19.3,9.3-30.4,14.4c0.6,0.9,1.3,1.9,1.9,2.9c10.9-4.8,22.8-10.4,29.7-14.3
			C245.5,50.4,245.1,49.4,244.7,48.4z"/>
		<path class="st0" d="M276.2,120.6c-5.7-12.1-15-15.5-20.7-37.9c-2.4-9.5-5-18.4-7.6-25.8c-7.4,3.6-18.4,8.9-28.6,13.5
			c10,15.5,23.1,38,20.4,45.4c-4.3,11.7-8.8,21.9-13.6,24.8s-23.6,5.9-13.3,12.4c10.2,6.4,32.6-1.9,37.6-10.2
			C255.5,134.5,281.9,132.8,276.2,120.6z"/>
		<path class="st0" d="M242.2,42.9c-1.3-2.4-2.5-4.2-3.5-5.1c0,0-16.2-0.2-29.8,17.1c0,0,0.8,1.2,2.2,3.2
			C222.9,52.9,235.8,46.9,242.2,42.9z"/>
	</g>
	<path class="st1" d="M230.1,46.2c0,0-1.2-4.4,11.2-8.7c0,0,5.4-3.1,6.1-12.9c0,0,0.4-11.2,14-7.7c13.7,3.4,14.5,2.6,26.2-5.5
		c0,0,10.9-8.8,11.8-11.2s-1.4,8.9-17.2,19.6c0,0,16.9-7.6,20.9-14c0,0-6.7,13.1-14.1,19.7c-7.5,6.7,12.7-5.7,15.7-11.9
		c0,0-4.4,21.4-25.3,24.4c0,0,8.9,2.6,11.7-0.5c0,0-1.8,5.7-18.4,4.9c0,0,10.1,3.4,13.8,0.9c0,0-0.4,3-14.7,2.8
		c0,0,4.2,3.6,10.8,2.4c0,0,0.1,3.2-23.9,2.1c0,0,8,4,10.9,3.4c0,0-5.7,7.1-20.9-0.5c0,0,3.5,6,8.2,7.4c0,0-8.8,5.2-19.8-10.1
		c0,0-1.2-5.2-3.8-5.9C232.4,44.8,231.3,45,230.1,46.2z"/>
</g>
<text transform="matrix(1 0 0 1 1.525879e-04 106.4867)" class="st2 st3">Hermes sock co.</text>
<path class="st0" d="M374.8,127.5c0,0,71.6,100.1,62.9,123.8s-17.9,44.5-27.6,50.3c-9.7,5.8-47.9,12.1-27.1,25.1s66.3-3.9,76.4-20.8
	s63.8-20.3,52.2-45c-11.6-24.7-30.5-31.4-42.1-76.9s-25.1-83.7-34.3-91.4C435.2,92.7,402.3,92.2,374.8,127.5z"/>
<rect x="88.5" y="-101.9" class="st0" width="77.6" height="77.6"/>
<rect x="175.5" y="-101.9" class="st4" width="77.6" height="77.6"/>
</svg>
