<?xml version="1.0" encoding="utf-8"?>
<!-- Generator: Adobe Illustrator 22.0.1, SVG Export Plug-In . SVG Version: 6.00 Build 0)  -->
<svg version="1.1" id="Layer_1" xmlns="http://www.w3.org/2000/svg" xmlns:xlink="http://www.w3.org/1999/xlink" x="0px" y="0px"
	 viewBox="0 0 1024.1 162.3" style="enable-background:new 0 0 1024.1 162.3;" xml:space="preserve">
<style type="text/css">
	.st0{fill:#FAA53D;}
	.st1{fill:#00B8FF;}
	.st2{fill:#FFFFFF;}
	.st3{fill:#B2B2B2;}
</style>
<g>
	<path class="st0" d="M370.3,350.6c-7.1,3.5-19.3,9.3-30.4,14.4c0.6,0.9,1.3,1.9,1.9,2.9c10.9-4.8,22.8-10.4,29.7-14.3
		C371.1,352.6,370.7,351.6,370.3,350.6z"/>
	<path class="st0" d="M401.8,422.8c-5.7-12.1-15-15.5-20.7-37.9c-2.4-9.5-5-18.4-7.6-25.8c-7.4,3.6-18.4,8.9-28.6,13.5
		c10,15.5,23.1,38,20.4,45.4c-4.3,11.7-8.8,21.9-13.6,24.8c-4.8,2.9-23.6,5.9-13.3,12.4c10.2,6.4,32.6-1.9,37.6-10.2
		C381.1,436.7,407.5,435,401.8,422.8z"/>
	<path class="st0" d="M367.8,345.1c-1.3-2.4-2.5-4.2-3.5-5.1c0,0-16.2-0.2-29.8,17.1c0,0,0.8,1.2,2.2,3.2
		C348.5,355.1,361.4,349.1,367.8,345.1z"/>
</g>
<g>
	<g id="XMLID_1_">
		<g>
			<path class="st1" d="M13.5,56.6c0.4,1,15.3,33.4,59.2,39h12.2L62.8,78.9C62.8,78.9,41.3,82.9,13.5,56.6z M59,52.3
				c-0.1,0-0.1-0.1-0.2-0.1l2.9,0l53.4,23.9c0,0,32,38.2,58.7,37.5c0,0-2.9-0.6-7.5-2.6l0.9-2c2.6,1.1,5.4,2,8.2,2.7
				c-4.1-1.2-30.3-10.6-34.8-51.5c0,0-3.9-11.1-12.6-10.3c0,0-24.4,2.1-41.4,2.7l-0.1-2.9c6.8-0.2,15-2,27-4.9
				c35.6-9.2,36.6,20.1,36.6,20.1c1.8,25.6,16,33.7,16,33.7c32.4,11.2,29.3,22.7,29.3,22.7c-3.1-3.1-6-3.7-8.4-3.4
				c-6.8,1.8-9.9,15.4-9.9,15.4c-28.7,40-51.8,26.4-51.8,26.4c12.3-3.7,21.4-19.3,21.4-19.3c-39.7,19.9-54.6,1.3-54.6,1.3
				c7.6,1.6,28.5-8.9,28.5-8.9c-62.8,2.9-62.5-5.5-62.5-5.5c17.3,3.1,28.2-6.3,28.2-6.3c-37.4,0.5-38.4-7.3-38.4-7.3
				c9.7,6.5,36.1-2.3,36.1-2.3c-42.1,2-47.8-11.9-48.1-12.8c7.3,8,30.6,1.3,30.6,1.3C12.6,92.2,0.6,37.9,0.3,36.2
				c7.9,16.2,60.6,48.6,41,31.1C22.6,50.5,5.5,17.9,4.5,15.8C14.6,31.8,55,50.5,58.8,52.2C58.9,52.3,59,52.3,59,52.3z M175.9,123.9
				C175.9,123.9,175.9,123.9,175.9,123.9c-0.2-0.1-0.6-0.4-1.3-0.7c0,0,0,0,0,0c-9.3-4.9-58.2-31-62.9-42c0,0-36.1-14.8-60-26.2
				c0,0-0.1,0-0.1-0.1c0,0-0.1,0-0.1-0.1c-9.8-4.7-17.4-8.8-19.7-11c2.9,3.2,49.3,55.4,106,70.6C166.6,122.1,174.9,124,175.9,123.9z
				 M168.3,131.1c0,0-0.3-6.8-11-8c0,0-45,15.4-55.9,20.1c0,0,23.3,8.3,43.8-8.3S168.3,131.1,168.3,131.1z M168.3,138.4
				c0,0-4.3-9.7-11.9-4.2c0,0-10.4,17.2-19.2,22C128.4,161.1,153.3,156.5,168.3,138.4z M149.5,123.9c0.3,0-0.4-0.3-1.4-0.7
				C148.8,123.5,149.2,123.8,149.5,123.9z M138.2,124.2c0,0,1.7-4.2,6.7-3.8c-9.1-2.8-28.6-9.2-28.6-9.2S84.8,128,76.5,129
				C68.3,129.9,98.6,135.8,138.2,124.2z M106.5,111.1l-5.1-2.7c-7.7,5-30.5,9.2-30.5,9.2C92.3,122.3,106.5,111.1,106.5,111.1z
				 M99.4,105l-10.7-5.6c-12.6,3.9-38.3,5.6-38.3,5.6C72.6,112.7,99.4,105,99.4,105z"/>
			<path class="st2" d="M175.9,123.9C175.9,123.9,175.9,123.9,175.9,123.9c-1.1,0.1-9.4-1.8-38.3-9.5C81,99.2,34.6,47,31.7,43.8
				c2.2,2.2,9.9,6.3,19.7,11c0.1,0.1,0.1,0.1,0.1,0.1c0,0,0.1,0.1,0.1,0.1c23.9,11.4,60,26.2,60,26.2c4.7,11,53.6,37.1,62.9,42
				c0,0,0,0,0,0C175.3,123.5,175.7,123.8,175.9,123.9z"/>
			<path class="st2" d="M173.9,113.6c-26.7,0.6-58.7-37.5-58.7-37.5L61.8,52.2c0.7,0,4.8,1.1,10.7,2.9c16.9,5.2,47.9,15.4,47.9,15.4
				c16.6,25.3,35.6,36.2,46,40.5C171,113,173.9,113.6,173.9,113.6z"/>
			<path class="st2" d="M175.4,111.7c-2.8-0.7-5.6-1.6-8.2-2.7c-25.4-10.7-40.8-38.9-42.9-43.1c-2.2-4.4-45.6-12.4-51.1-13.3
				c-0.2,0-0.3-0.1-0.4-0.1c2.7,0.3,7.8,0.3,13.8,0.1c17-0.6,41.4-2.7,41.4-2.7c8.8-0.8,12.6,10.3,12.6,10.3
				C145.1,101.1,171.3,110.5,175.4,111.7z"/>
			<path class="st1" d="M167.2,109l-0.9,2c-10.3-4.3-29.4-15.3-46-40.5c0,0-31-10.2-47.9-15.4l0.8-2.5c5.4,1,48.9,8.9,51.1,13.3
				C126.4,70.1,141.8,98.3,167.2,109z"/>
			<path class="st2" d="M157.3,123.2c10.7,1.2,11,8,11,8s-2.6-12.7-23.1,3.9s-43.8,8.3-43.8,8.3
				C112.3,138.5,157.3,123.2,157.3,123.2z"/>
			<path class="st2" d="M156.3,134.3c7.7-5.5,11.9,4.2,11.9,4.2c-14.9,18-39.9,22.6-31.1,17.8C145.9,151.4,156.3,134.3,156.3,134.3z
				"/>
			<path class="st3" d="M148.1,123.2c1,0.4,1.7,0.7,1.4,0.7C149.2,123.8,148.8,123.5,148.1,123.2z"/>
			<path class="st2" d="M144.9,120.4c-5-0.4-6.7,3.8-6.7,3.8c-39.6,11.6-69.9,5.7-61.7,4.8c8.3-0.9,39.8-17.8,39.8-17.8
				S135.8,117.5,144.9,120.4z"/>
			<path class="st2" d="M101.4,108.4l5.1,2.7c0,0-14.2,11.2-35.6,6.5C70.9,117.6,93.7,113.4,101.4,108.4z"/>
			<path class="st2" d="M88.7,99.4l10.7,5.6c0,0-26.8,7.7-49,0C50.4,105,76.1,103.3,88.7,99.4z"/>
			<path class="st1" d="M72.8,52.5c0.1,0,0.2,0,0.4,0.1l-0.8,2.5c-5.8-1.8-10-2.9-10.7-2.9l-2.9,0C17.7,24.3,11.8-5.2,14.1,1.1
				C16.5,7.4,45,30.4,45,30.4C65.3,44.5,73,50.1,86.5,49.7l0.1,2.9C80.6,52.8,75.5,52.8,72.8,52.5z"/>
			<path class="st2" d="M84.9,95.6H72.7c-43.9-5.7-58.7-38-59.2-39c27.8,26.3,49.3,22.4,49.3,22.4L84.9,95.6z"/>
		</g>
		<g>
		</g>
	</g>
</g>
<g>
	<g id="XMLID_2_">
		<g>
			<path class="st1" d="M965.1,52.3c0.1,0,0.1-0.1,0.2-0.1l-2.9,0L909,76.1c0,0-32,38.2-58.7,37.5c0,0,2.9-0.6,7.5-2.6l-0.9-2
				c-2.6,1.1-5.4,2-8.2,2.7c4.1-1.2,30.3-10.6,34.8-51.5c0,0,3.9-11.1,12.6-10.3c0,0,24.4,2.1,41.4,2.7l0.1-2.9
				c-6.8-0.2-15-2-27-4.9c-35.6-9.2-36.6,20.1-36.6,20.1c-1.8,25.6-16,33.7-16,33.7c-32.4,11.2-29.3,22.7-29.3,22.7
				c3.1-3.1,6-3.7,8.4-3.4c6.8,1.8,9.9,15.4,9.9,15.4c28.7,40,51.8,26.4,51.8,26.4c-12.3-3.7-21.4-19.3-21.4-19.3
				c39.7,19.9,54.6,1.3,54.6,1.3c-7.6,1.6-28.5-8.9-28.5-8.9c62.8,2.9,62.5-5.5,62.5-5.5c-17.3,3.1-28.2-6.3-28.2-6.3
				c37.4,0.5,38.4-7.3,38.4-7.3c-9.7,6.5-36.1-2.3-36.1-2.3c42.1,2,47.8-11.9,48.1-12.8c-7.3,8-30.6,1.3-30.6,1.3
				c53.8-7.7,65.8-62.1,66.1-63.8c-7.9,16.2-60.6,48.6-41,31.1c18.8-16.7,35.8-49.4,36.8-51.4c-10.1,15.9-50.5,34.6-54.3,36.4
				C965.2,52.3,965.1,52.3,965.1,52.3z M1010.7,56.6c-0.4,1-15.3,33.4-59.2,39h-12.2l22.1-16.6C961.4,78.9,982.8,82.9,1010.7,56.6z
				 M848.2,123.9C848.2,123.9,848.2,123.9,848.2,123.9c0.2-0.1,0.6-0.4,1.3-0.7c0,0,0,0,0,0c9.3-4.9,58.2-31,62.9-42
				c0,0,36.1-14.8,60-26.2c0,0,0.1,0,0.1-0.1c0,0,0.1,0,0.1-0.1c9.8-4.7,17.4-8.8,19.7-11c-2.9,3.2-49.3,55.4-106,70.6
				C857.6,122.1,849.3,124,848.2,123.9z M855.9,131.1c0,0,0.3-6.8,11-8c0,0,45,15.4,55.9,20.1c0,0-23.3,8.3-43.8-8.3
				C858.4,118.4,855.9,131.1,855.9,131.1z M855.9,138.4c0,0,4.3-9.7,11.9-4.2c0,0,10.4,17.2,19.2,22
				C895.7,161.1,870.8,156.5,855.9,138.4z M874.7,123.9c-0.3,0,0.4-0.3,1.4-0.7C875.3,123.5,874.9,123.8,874.7,123.9z M885.9,124.2
				c0,0-1.7-4.2-6.7-3.8c9.1-2.8,28.6-9.2,28.6-9.2s31.5,16.9,39.8,17.8C955.9,129.9,925.5,135.8,885.9,124.2z M917.6,111.1l5.1-2.7
				c7.7,5,30.5,9.2,30.5,9.2C931.9,122.3,917.6,111.1,917.6,111.1z M924.7,105l10.7-5.6c12.6,3.9,38.3,5.6,38.3,5.6
				C951.6,112.7,924.7,105,924.7,105z"/>
			<path class="st2" d="M848.2,123.9C848.2,123.9,848.2,123.9,848.2,123.9c1.1,0.1,9.4-1.8,38.3-9.5c56.7-15.2,103.1-67.4,106-70.6
				c-2.2,2.2-9.9,6.3-19.7,11c-0.1,0.1-0.1,0.1-0.1,0.1c0,0-0.1,0.1-0.1,0.1c-23.9,11.4-60,26.2-60,26.2c-4.7,11-53.6,37.1-62.9,42
				c0,0,0,0,0,0C848.9,123.5,848.4,123.8,848.2,123.9z"/>
			<path class="st2" d="M850.2,113.6C877,114.2,909,76.1,909,76.1l53.4-23.9c-0.7,0-4.8,1.1-10.7,2.9c-16.9,5.2-47.9,15.4-47.9,15.4
				c-16.6,25.3-35.6,36.2-46,40.5C853.1,113,850.2,113.6,850.2,113.6z"/>
			<path class="st2" d="M848.7,111.7c2.8-0.7,5.6-1.6,8.2-2.7c25.4-10.7,40.8-38.9,42.9-43.1c2.2-4.4,45.6-12.4,51.1-13.3
				c0.2,0,0.3-0.1,0.4-0.1c-2.7,0.3-7.8,0.3-13.8,0.1c-17-0.6-41.4-2.7-41.4-2.7c-8.8-0.8-12.6,10.3-12.6,10.3
				C879,101.1,852.8,110.5,848.7,111.7z"/>
			<path class="st1" d="M856.9,109l0.9,2c10.3-4.3,29.4-15.3,46-40.5c0,0,31-10.2,47.9-15.4l-0.8-2.5c-5.4,1-48.9,8.9-51.1,13.3
				C897.8,70.1,882.3,98.3,856.9,109z"/>
			<path class="st2" d="M866.8,123.2c-10.7,1.2-11,8-11,8s2.6-12.7,23.1,3.9c20.5,16.6,43.8,8.3,43.8,8.3
				C911.8,138.5,866.8,123.2,866.8,123.2z"/>
			<path class="st2" d="M867.8,134.3c-7.7-5.5-11.9,4.2-11.9,4.2c14.9,18,39.9,22.6,31.1,17.8C878.2,151.4,867.8,134.3,867.8,134.3z
				"/>
			<path class="st3" d="M876,123.2c-1,0.4-1.7,0.7-1.4,0.7C874.9,123.8,875.3,123.5,876,123.2z"/>
			<path class="st2" d="M879.2,120.4c5-0.4,6.7,3.8,6.7,3.8c39.6,11.6,69.9,5.7,61.7,4.8c-8.3-0.9-39.8-17.8-39.8-17.8
				S888.3,117.5,879.2,120.4z"/>
			<path class="st2" d="M922.8,108.4l-5.1,2.7c0,0,14.2,11.2,35.6,6.5C953.2,117.6,930.5,113.4,922.8,108.4z"/>
			<path class="st2" d="M935.4,99.4l-10.7,5.6c0,0,26.8,7.7,49,0C973.8,105,948,103.3,935.4,99.4z"/>
			<path class="st1" d="M951.3,52.5c-0.1,0-0.2,0-0.4,0.1l0.8,2.5c5.8-1.8,10-2.9,10.7-2.9l2.9,0c41.1-27.9,47.1-57.4,44.8-51.1
				c-2.4,6.3-30.9,29.3-30.9,29.3c-20.3,14.1-28.1,19.7-41.5,19.3l-0.1,2.9C943.5,52.8,948.6,52.8,951.3,52.5z"/>
			<path class="st2" d="M939.3,95.6h12.2c43.9-5.7,58.7-38,59.2-39c-27.8,26.3-49.3,22.4-49.3,22.4L939.3,95.6z"/>
		</g>
		<g>
		</g>
	</g>
</g>
<path class="st3" d="M807.2,76.7c-0.7,0.4-1.2,0.6-1.4,0.7C805.5,77.4,806.2,77.1,807.2,76.7z"/>
<path class="st3" d="M805.9,77.4L805.9,77.4C805.8,77.4,805.8,77.4,805.9,77.4C805.8,77.4,805.8,77.4,805.9,77.4z"/>
<g>
	<path class="st2" d="M563.7,399.2c0,0-1.6-5.9,15-11.6c0,0,7.2-4.1,8.2-17.2c0,0,0.5-15,18.7-10.3c18.3,4.5,19.4,3.5,35-7.4
		c0,0,14.6-11.8,15.8-15s-1.9,11.9-23,26.2c0,0,22.6-10.2,27.9-18.7c0,0-9,17.5-18.9,26.3c-10,9,17-7.6,21-15.9
		c0,0-5.9,28.6-33.8,32.6c0,0,11.9,3.5,15.6-0.7c0,0-2.4,7.6-24.6,6.6c0,0,13.5,4.5,18.4,1.2c0,0-0.5,4-19.7,3.7
		c0,0,5.6,4.8,14.4,3.2c0,0,0.1,4.3-32,2.8c0,0,10.7,5.3,14.6,4.5c0,0-7.6,9.5-27.9-0.7c0,0,4.7,8,11,9.9c0,0-11.8,7-26.5-13.5
		c0,0-1.6-7-5.1-7.9C566.8,397.4,565.3,397.6,563.7,399.2z"/>
	<path class="st3" d="M647.4,359.6c-1.5,1.7-25.2,28.4-54.2,36.1c-14.8,3.9-19,4.9-19.6,4.9c0,0,0,0,0,0c0.1-0.1,0.3-0.2,0.7-0.4
		c0,0,0,0,0,0c4.7-2.5,29.8-15.9,32.2-21.5c0,0,18.4-7.6,30.7-13.4c0,0,0,0,0.1,0c0,0,0,0,0.1,0
		C642.3,362.8,646.2,360.7,647.4,359.6z"/>
	<path class="st3" d="M573.6,394.4c0,0,15.6-3.7,18.1-26.4c0,0,2-5.7,6.5-5.3c0,0,23.1,2,28.3,1.3c0,0-25.2,4.5-26.4,6.9
		C598.9,373.3,589.3,390.7,573.6,394.4z"/>
	<path class="st3" d="M583.2,400.2c0,0,23,7.9,28.6,10.3c0,0-11.9,4.2-22.4-4.2s-11.8-2-11.8-2S577.7,400.8,583.2,400.2z"/>
	<path class="st3" d="M592.9,400.7c20.3,5.9,35.8,2.9,31.5,2.4c-4.2-0.5-20.3-9.1-20.3-9.1s-10,3.3-14.6,4.7
		C592.1,398.5,592.9,400.7,592.9,400.7z"/>
	<path class="st3" d="M631.5,377.5c0,0,11,2,25.2-11.5c0,0-7.5,17-30.3,20h-6.2L631.5,377.5z"/>
	<path class="st3" d="M618.2,388l-5.5,2.9c0,0,13.7,3.9,25.1,0C637.8,390.9,624.7,390,618.2,388z"/>
	<path class="st3" d="M611.8,392.6l-2.6,1.4c0,0,7.3,5.7,18.2,3.3C627.3,397.3,615.7,395.2,611.8,392.6z"/>
	<path class="st3" d="M577.6,408c0,0,2.2-5,6.1-2.1c0,0,5.3,8.8,9.8,11.2C597.9,419.5,585.2,417.2,577.6,408z"/>
	<path class="st3" d="M574.7,395.3c0,0,15-3.3,27.4-22.1c0,0,28.6-9.4,30-9.4l-27.3,12.2C604.7,376.1,588.3,395.6,574.7,395.3z"/>
</g>
<g>
	<rect x="195.4" y="0.2" class="st2" width="633.4" height="9.4"/>
	<path class="st2" d="M324.9,79.2c0-10.1-2-11.8-5-11.8h-1.8v24.6h1.7C322.9,92.1,324.9,89.7,324.9,79.2z"/>
	<path class="st2" d="M764,125.3c2,0,3.2-1.2,3.2-4.2V70c0-3-1.7-4.3-3.3-4.3c-2,0-3.4,1.2-3.4,4.3v51.1
		C760.4,124,761.7,125.3,764,125.3z"/>
	<path class="st2" d="M567.5,125.3c2,0,3.2-1.2,3.2-4.2V70c0-3-1.7-4.3-3.3-4.3c-2,0-3.4,1.2-3.4,4.3v51.1
		C563.9,124,565.3,125.3,567.5,125.3z"/>
	<path class="st2" d="M195.4,162h633.4V43.8H195.4V162z M795.1,122.1h12.7v12.5h-12.7V122.1z M746.9,72.6c0-12.7,7.9-17.2,17-17.2
		s16.6,4.5,16.6,17.2v45.9c0,12.8-7.6,17.2-16.6,17.2c-9.2,0-17-4.8-17-17.2V72.6z M703.7,72.3c0-11.2,6.3-16.9,16.1-16.9
		c8.9,0,15.4,3.1,15.4,17.1c0,3.9-0.4,7.7-0.8,10.6l-10.2-0.8c0.4-2.7,0.7-5.6,0.7-8.3c0-7.3-1.7-8.3-4.2-8.3c-2.4,0-3.5,1-3.5,5
		v49.7c0,3.5,0.9,5.2,4,5.2c2.2,0,3.8-1.5,3.8-8.9c0-2.4-0.3-5.4-0.7-8.3l10.3-0.8c0.4,2.8,0.8,6.2,0.8,10.7
		c0,14.3-6.5,17.5-15.3,17.5c-10,0-16.3-5.1-16.3-16.5V72.3z M640.7,56.7h13.5v23l8.2-23h12.9l-10.7,28.4l12,49.7h-14l-6.4-31.9
		l-1.9,5.1v26.9h-13.5V56.7z M596.6,72.3c0-11.2,6.3-16.9,16.1-16.9c8.9,0,15.4,3.1,15.4,17.1c0,3.9-0.4,7.7-0.8,10.6L617,82.4
		c0.4-2.7,0.7-5.6,0.7-8.3c0-7.3-1.7-8.3-4.2-8.3c-2.4,0-3.5,1-3.5,5v49.7c0,3.5,0.9,5.2,4,5.2c2.2,0,3.8-1.5,3.8-8.9
		c0-2.4-0.3-5.4-0.7-8.3l10.3-0.8c0.4,2.8,0.8,6.2,0.8,10.7c0,14.3-6.5,17.5-15.3,17.5c-10,0-16.3-5.1-16.3-16.5V72.3z M550.5,72.6
		c0-12.7,7.9-17.2,17-17.2c9.1,0,16.6,4.5,16.6,17.2v45.9c0,12.8-7.6,17.2-16.6,17.2c-9.2,0-17-4.8-17-17.2V72.6z M507.8,73.2
		c0-10.1,4-17.8,15.5-17.8c11,0,14.5,7,14.5,17.6c0,3.9-0.3,6.6-0.7,9.6l-10.2-1.2c0.3-2.6,0.5-3.2,0.5-7.3c0-6.8-1-8.4-3.1-8.4
		c-2.2,0-2.9,1.5-2.9,6.1v1.6c0,4.5,1.7,9,6.5,15.1c6.7,8.6,11.1,17.9,11.1,27.9v1.5c0,12.5-6.5,17.8-16.3,17.8
		c-10.4,0-14.6-6.4-14.6-17.6c0-4.3,0.4-8.1,0.8-10.9l10.1,1.2c-0.4,2.9-0.7,6-0.7,8.6c0,6.6,1.1,8.3,3.5,8.3c2.2,0,3.4-1.7,3.4-6.5
		v-2.1c0-5.8-1.6-11-8.2-19.1c-6.6-7.9-9.2-14.3-9.2-23.2V73.2z M447.4,73.2c0-10.1,4-17.8,15.5-17.8c11,0,14.5,7,14.5,17.6
		c0,3.9-0.3,6.6-0.7,9.6l-10.2-1.2c0.3-2.6,0.5-3.2,0.5-7.3c0-6.8-1-8.4-3.1-8.4c-2.2,0-2.9,1.5-2.9,6.1v1.6c0,4.5,1.7,9,6.5,15.1
		c6.7,8.6,11.1,17.9,11.1,27.9v1.5c0,12.5-6.5,17.8-16.3,17.8c-10.4,0-14.6-6.4-14.6-17.6c0-4.3,0.4-8.1,0.8-10.9l10.1,1.2
		c-0.4,2.9-0.7,6-0.7,8.6c0,6.6,1.1,8.3,3.5,8.3c2.2,0,3.4-1.7,3.4-6.5v-2.1c0-5.8-1.6-11-8.2-19.1c-6.6-7.9-9.2-14.3-9.2-23.2V73.2
		z M408.9,56.7h27.3v10.7h-13.8V89h11.4V100h-11.4v23.8h13.9v10.7h-27.4V56.7z M350.6,56.7h15.6l6.2,45.9l7.3-45.9h15.2v78h-13V98.3
		l-5.8,36.5h-8.3l-6.1-36.5v36.5h-11.1V56.7z M304.6,56.7h16.8c10.8,0,16.6,6.2,16.6,20.5c0,10.8-0.9,16.6-7.7,20
		c5.9,3.7,6.5,12.9,6.5,17.8v5.9c0,7.3,0.4,10.1,1.3,13.9h-13.4c-0.6-1.4-0.9-3-1-4.7c-0.2-6.8-0.2-9.3-0.3-14.3
		c-0.2-11.7-1.8-12.9-3.4-12.9h-1.9v31.8h-13.5V56.7z M264.8,56.7h27.3v10.7h-13.8V89h11.5V100h-11.5v23.8h13.9v10.7h-27.4V56.7z
		 M216.4,56.7h13.4v32.6h7.7V56.7h13.4v78h-13.4v-34.5h-7.7v34.2h-13.4V56.7z"/>
	<rect x="195.4" y="19.4" class="st2" width="633.4" height="14.6"/>
</g>
<g>
	<path class="st0" d="M553.6,472.7h-6.8v-17.6h-3.9v17.5H536v-39.8h6.8v16.7h3.9v-16.7h6.8V472.7z"/>
	<path class="st0" d="M574.8,472.6h-14v-39.8h13.9v5.5h-7v11h5.9v5.6h-5.9v12.2h7.1V472.6z"/>
	<path class="st0" d="M591.5,472.7c-0.3-0.7-0.5-1.6-0.5-2.4c-0.1-3.5-0.1-4.8-0.2-7.3c-0.1-6-0.9-6.6-1.8-6.6h-1v16.3h-6.9v-39.9
		h8.6c5.5,0,8.5,3.2,8.5,10.5c0,5.5-0.5,8.5-3.9,10.2c3,1.9,3.3,6.6,3.3,9.1v3c0,3.7,0.2,5.2,0.7,7.1H591.5z M589,438.3H588v12.6
		h0.9c1.6,0,2.6-1.2,2.6-6.6C591.5,439.1,590.5,438.3,589,438.3z"/>
	<path class="st0" d="M627.3,472.7h-6.6v-18.7l-3,18.7h-4.2l-3.1-18.7v18.7h-5.7v-39.9h8l3.2,23.5l3.7-23.5h7.8V472.7z"/>
	<path class="st0" d="M648.5,472.6h-14v-39.8h13.9v5.5h-7v11h5.9v5.6h-5.9v12.2h7.1V472.6z"/>
	<path class="st0" d="M670.1,464.1c0,6.4-3.3,9.1-8.3,9.1c-5.3,0-7.5-3.3-7.5-9c0-2.2,0.2-4.1,0.4-5.6l5.2,0.6
		c-0.2,1.5-0.4,3.1-0.4,4.4c0,3.4,0.6,4.2,1.8,4.2c1.1,0,1.8-0.9,1.8-3.3v-1.1c0-3-0.8-5.6-4.2-9.7c-3.4-4-4.7-7.3-4.7-11.9v-0.6
		c0-5.2,2-9.1,7.9-9.1c5.6,0,7.4,3.6,7.4,9c0,2-0.2,3.4-0.4,4.9l-5.2-0.6c0.2-1.3,0.3-1.7,0.3-3.7c0-3.5-0.5-4.3-1.6-4.3
		c-1.1,0-1.5,0.8-1.5,3.1v0.8c0,2.3,0.9,4.6,3.3,7.7c3.4,4.4,5.7,9.2,5.7,14.2V464.1z"/>
	<path class="st0" d="M700.9,464.1c0,6.4-3.3,9.1-8.3,9.1c-5.3,0-7.5-3.3-7.5-9c0-2.2,0.2-4.1,0.4-5.6l5.2,0.6
		c-0.2,1.5-0.4,3.1-0.4,4.4c0,3.4,0.6,4.2,1.8,4.2c1.1,0,1.8-0.9,1.8-3.3v-1.1c0-3-0.8-5.6-4.2-9.7c-3.4-4-4.7-7.3-4.7-11.9v-0.6
		c0-5.2,2-9.1,7.9-9.1c5.6,0,7.4,3.6,7.4,9c0,2-0.2,3.4-0.4,4.9l-5.2-0.6c0.2-1.3,0.3-1.7,0.3-3.7c0-3.5-0.5-4.3-1.6-4.3
		c-1.1,0-1.5,0.8-1.5,3.1v0.8c0,2.3,0.9,4.6,3.3,7.7c3.4,4.4,5.7,9.2,5.7,14.2V464.1z"/>
	<path class="st0" d="M724.1,464.4c0,6.5-3.9,8.8-8.5,8.8c-4.7,0-8.7-2.4-8.7-8.8v-23.5c0-6.5,4-8.8,8.7-8.8c4.7,0,8.5,2.3,8.5,8.8
		V464.4z M717.2,439.6c0-1.6-0.9-2.2-1.7-2.2c-1,0-1.8,0.6-1.8,2.2v26.1c0,1.5,0.7,2.2,1.8,2.2c1,0,1.7-0.6,1.7-2.1V439.6z"/>
	<path class="st0" d="M738.8,473.2c-5.1,0-8.3-2.6-8.3-8.4v-24c0-5.8,3.2-8.7,8.2-8.7c4.6,0,7.9,1.6,7.9,8.8c0,2-0.2,3.9-0.4,5.4
		l-5.2-0.4c0.2-1.4,0.4-2.8,0.4-4.2c0-3.7-0.9-4.2-2.1-4.2c-1.2,0-1.8,0.5-1.8,2.5v25.4c0,1.8,0.5,2.6,2,2.6c1.1,0,1.9-0.8,1.9-4.6
		c0-1.2-0.2-2.7-0.4-4.2l5.3-0.4c0.2,1.5,0.4,3.2,0.4,5.5C746.6,471.6,743.3,473.2,738.8,473.2z"/>
	<path class="st0" d="M771.3,472.7h-7.2l-3.3-16.3l-1,2.6v13.7H753v-39.9h6.9v11.8l4.2-11.8h6.6l-5.5,14.5L771.3,472.7z"/>
	<path class="st0" d="M793.5,473.2c-5.1,0-8.3-2.6-8.3-8.4v-24c0-5.8,3.2-8.7,8.2-8.7c4.6,0,7.9,1.6,7.9,8.8c0,2-0.2,3.9-0.4,5.4
		l-5.2-0.4c0.2-1.4,0.4-2.8,0.4-4.2c0-3.7-0.9-4.2-2.1-4.2c-1.2,0-1.8,0.5-1.8,2.5v25.4c0,1.8,0.5,2.6,2,2.6c1.1,0,1.9-0.8,1.9-4.6
		c0-1.2-0.2-2.7-0.4-4.2l5.3-0.4c0.2,1.5,0.4,3.2,0.4,5.5C801.4,471.6,798,473.2,793.5,473.2z"/>
	<path class="st0" d="M824.5,464.4c0,6.5-3.9,8.8-8.5,8.8c-4.7,0-8.7-2.4-8.7-8.8v-23.5c0-6.5,4-8.8,8.7-8.8c4.7,0,8.5,2.3,8.5,8.8
		V464.4z M817.7,439.6c0-1.6-0.9-2.2-1.7-2.2c-1,0-1.8,0.6-1.8,2.2v26.1c0,1.5,0.7,2.2,1.8,2.2c1,0,1.7-0.6,1.7-2.1V439.6z"/>
	<path class="st0" d="M838.4,472.6h-6.5v-6.4h6.5V472.6z"/>
</g>
</svg>
