<?xml version="1.0" encoding="utf-8"?>
<!-- Generator: Adobe Illustrator 22.0.1, SVG Export Plug-In . SVG Version: 6.00 Build 0)  -->
<svg version="1.1" id="Layer_1" xmlns="http://www.w3.org/2000/svg" xmlns:xlink="http://www.w3.org/1999/xlink" x="0px" y="0px"
	 viewBox="0 0 242 242" style="enable-background:new 0 0 242 242;" xml:space="preserve">
<style type="text/css">
	.st0{fill:#FFF200;}
	.st1{fill:none;stroke:#231F20;stroke-width:3;stroke-miterlimit:10;}
	.st2{fill:#231F20;}
	.st3{fill:#56391F;}
	.st4{fill:#875F3E;}
	.st5{fill:#FAA53D;}
	.st6{fill:#FFFFFF;}
	.st7{opacity:0.2;fill:#E8E8E8;enable-background:new    ;}
	.st8{fill:#B2B2B2;}
	.st9{fill:#FF8600;}
</style>
<polygon class="st0" points="201.7,214.1 147.9,176.4 144.3,242 116.6,182.4 80.7,237.4 86.5,172 27.9,201.7 65.6,147.9 0,144.3 
	59.5,116.6 4.5,80.7 69.9,86.5 40.3,27.9 94,65.6 97.6,0 125.4,59.5 161.2,4.5 155.5,69.9 214.1,40.3 176.4,94 242,97.6 
	182.4,125.4 237.4,161.2 172,155.5 "/>
<g>
	<polyline class="st1" points="382.1,115 366,91 439.9,76.5 463,110.7 486.5,78.5 557.8,91 551.5,102 568.5,98.6 534.1,128.1 
		531.4,178.4 462.7,214.6 462.4,214.4 391.3,180 387.9,131 349.7,103.4 	"/>
	<polyline class="st1" points="406.9,123.8 463,110.7 497.2,119.7 	"/>
	<polyline class="st1" points="387.9,131 462.4,154.6 462.4,214.6 	"/>
	<line class="st1" x1="534.1" y1="128.1" x2="462.4" y2="154.6"/>
	<polyline class="st1" points="568.5,98.6 497.2,119.7 462.4,154.6 421.8,129.1 349.7,103.4 	"/>
</g>
<g>
	<polygon class="st2" points="475.6,140.7 474.4,140.7 475,140.5 	"/>
</g>
<g>
	<polygon class="st2" points="475.9,183.5 475.9,183.9 475.2,184.2 	"/>
</g>
<g>
	<polygon class="st2" points="475.9,183.5 475.9,183.9 475.2,184.2 	"/>
</g>
<g id="XMLID_1_">
	<g>
		<path class="st3" d="M207.3,152.6l-28.1,24.1l-2,37.1L125.6,241l-0.7-0.4l-53-25.5L69.5,179l-27.8-20l0.6-0.9l0.4-1.1l20.8,7.4
			l-10.8-16.2l56.7-11.1l16.5,24.4l16.8-23l54.7,9.6l-4.3,7.4L207.3,152.6z M177.4,175.3l21.2-18.2l-47.2,14l-21.9,21.8L177.4,175.3
			z M125.1,194.3l23.7-23.7l-22.5-5.9l-0.4-0.1l-0.4,0.1l-36.9,8.6l7.6,2.7L125.1,194.3z M124.2,237.9v-41.3L71.8,180l2.3,33.8
			L124.2,237.9z M126.4,196.4L126.4,196.4l50.4-18.6l-1.9,34.7l-48.5,25.6V238V196.4L126.4,196.4L126.4,196.4z"/>
		<polygon class="st4" points="198.6,157.1 177.4,175.3 129.6,192.9 151.5,171.1 		"/>
		<polygon class="st4" points="176.8,177.8 175,212.5 126.4,238.1 126.4,196.5 		"/>
		<polygon class="st4" points="148.8,170.6 125.1,194.3 96,176 88.4,173.3 125.3,164.7 125.7,164.6 126.3,164.7 		"/>
		<polygon class="st4" points="124.2,196.5 124.2,237.9 74.1,213.7 71.8,179.9 		"/>
	</g>
</g>
<g>
	<g>
		<path class="st5" d="M105.7,68.7c-6.2,3-17,8.2-26.7,12.6c0.5,0.8,1.2,1.6,1.6,2.6c9.6-4.2,20-9.1,26-12.5
			C106.4,70.5,106,69.7,105.7,68.7z"/>
		<path class="st5" d="M133.3,132c-5-10.6-13.1-13.6-18.1-33.2c-2.1-8.3-4.3-16.1-6.7-22.6c-6.4,3.2-16.1,7.7-25,11.8
			c8.8,13.6,20.2,33.4,17.9,39.8c-3.7,10.3-7.7,19.2-11.9,21.8s-20.7,5.1-11.7,10.9c8.9,5.6,28.6-1.6,33-8.9
			C115.1,144.2,138.3,142.7,133.3,132z"/>
		<path class="st5" d="M103.4,63.9c-1.2-2.1-2.2-3.6-3-4.4c0,0-14.2-0.1-26.1,15c0,0,0.7,1.1,1.9,2.8
			C86.6,72.7,97.8,67.4,103.4,63.9z"/>
	</g>
	<path class="st6" d="M92.9,66.8c0,0-1.1-3.9,9.8-7.6c0,0,4.7-2.7,5.4-11.4c0,0,0.4-9.8,12.3-6.8c12.1,2.9,12.8,2.2,22.9-4.8
		c0,0,9.6-7.7,10.3-9.8c0.8-2.1-1.2,7.8-15.1,17.2c0,0,14.9-6.7,18.4-12.3c0,0-5.9,11.5-12.4,17.3s11.1-5,13.8-10.4
		c0,0-3.9,18.7-22.1,21.4c0,0,7.8,2.2,10.3-0.5c0,0-1.5,5-16.1,4.3c0,0,8.9,2.9,12.1,0.8c0,0-0.4,2.6-12.9,2.5c0,0,3.6,3.2,9.5,2.1
		c0,0,0.1,2.8-20.9,1.9c0,0,7,3.5,9.6,2.9c0,0-5,6.2-18.4-0.5c0,0,3,5.3,7.1,6.4c0,0-7.7,4.6-17.3-8.9c0,0-1.1-4.6-3.3-5.1
		C94.9,65.6,94,65.8,92.9,66.8z"/>
	<path class="st7" d="M147.7,40.8c-0.9,1.1-16.5,18.6-35.5,23.6c-9.7,2.6-12.5,3.2-12.9,3.2l0,0c0.1,0,0.2-0.1,0.5-0.2l0,0
		c3.2-1.6,19.5-10.4,21.1-14c0,0,12.1-4.9,20.1-8.8l0,0l0,0C144.4,43,147,41.6,147.7,40.8z"/>
	<path class="st8" d="M99.8,67.4c-0.2,0.1-0.4,0.2-0.5,0.2C99.2,67.7,99.5,67.6,99.8,67.4z"/>
	<path class="st8" d="M99.4,67.7L99.4,67.7L99.4,67.7L99.4,67.7z"/>
	<path class="st7" d="M99.4,63.6c0,0,10.2-2.5,11.8-17.3c0,0,1.3-3.7,4.2-3.5c0,0,15.1,1.3,18.5,0.8c0,0-16.5,2.9-17.3,4.4
		C115.9,49.8,109.6,61.2,99.4,63.6z"/>
	<path class="st7" d="M104.3,67.4c0,0,16.1,5.1,20,6.8c0,0-8.3,2.8-15.7-2.8s-8.3-1.3-8.3-1.3S100.5,67.8,104.3,67.4z"/>
	<path class="st7" d="M132.7,69.3c-2.8-0.4-13.3-6-13.3-6s-10.2,2.6-13.2,3.5C109.5,70.9,135.5,69.7,132.7,69.3z"/>
	<path class="st7" d="M137,52.6c0,0,7.4,1.3,16.9-7.5c0,0-5,11.1-20.2,13.1h-4.2L137,52.6z"/>
	<path class="st7" d="M128.1,58.8l-3.7,2.3c0,0,9.4,3.2,17.1,0C141.5,61.1,132.5,60.4,128.1,58.8z"/>
	<path class="st7" d="M123,61.6l-2,1.2c0,0,5.4,4.7,13.5,2.7C134.6,65.4,125.9,63.7,123,61.6z"/>
	<path class="st7" d="M100.9,71.5c0,0,5.6,8.2,12.4,8.1h2C115.1,79.6,100.9,69.8,100.9,71.5z"/>
	<path class="st7" d="M100.1,64.2c0,0,9.8-2.1,17.9-14.5c0,0,18.7-6.2,19.7-6.1l-17.9,8C119.7,51.6,109.1,64.4,100.1,64.2z"/>
	<path class="st7" d="M100.9,70.6c0,0,1.5-3.2,6.6,1.1c0,0,1.5,2,1.5,2.9C109.1,75.5,104.5,70,100.9,70.6z"/>
</g>
<g>
	<g>
		<path class="st5" d="M146.9,82.7c-6.2,3-17,8.2-26.7,12.6c0.5,0.8,1.2,1.6,1.6,2.6c9.6-4.2,20-9.1,26-12.5
			C147.6,84.5,147.3,83.5,146.9,82.7z"/>
		<path class="st5" d="M174.5,145.9c-5-10.6-13.1-13.6-18.1-33.2c-2.1-8.3-4.3-16.1-6.7-22.6c-6.4,3.2-16.1,7.8-25,11.8
			c8.8,13.6,20.2,33.4,17.9,39.8c-3.7,10.3-7.7,19.2-11.9,21.8c-4.2,2.6-20.7,5.1-11.7,10.9c8.9,5.6,28.6-1.6,33-8.9
			C156.4,158.1,179.5,156.7,174.5,145.9z"/>
		<path class="st5" d="M144.7,77.8c-1.2-2.1-2.2-3.6-3-4.4c0,0-14.2-0.1-26.1,15c0,0,0.7,1.1,1.9,2.8
			C127.8,86.6,139.1,81.3,144.7,77.8z"/>
	</g>
	<path class="st6" d="M134,80.7c0,0-1.1-3.9,9.8-7.6c0,0,4.7-2.7,5.4-11.4c0,0,0.4-9.8,12.3-6.8c12.1,2.9,12.8,2.2,22.9-4.8
		c0,0,9.6-7.7,10.3-9.8c0.8-2.1-1.2,7.8-15.1,17.2c0,0,14.9-6.7,18.4-12.3c0,0-5.9,11.5-12.4,17.3c-6.6,5.9,11.1-5,13.8-10.4
		c0,0-3.9,18.7-22.1,21.4c0,0,7.8,2.2,10.3-0.5c0,0-1.5,5-16.1,4.3c0,0,8.9,2.9,12.1,0.8c0,0-0.4,2.6-12.9,2.5c0,0,3.6,3.2,9.5,2.1
		c0,0,0.1,2.8-20.9,1.9c0,0,7,3.5,9.6,2.9c0,0-5,6.2-18.4-0.5c0,0,3,5.3,7.1,6.4c0,0-7.7,4.6-17.3-8.9c0,0-1.1-4.6-3.3-5.1
		C136.2,79.5,135.1,79.7,134,80.7z"/>
	<path class="st7" d="M188.9,54.7c-0.9,1.1-16.5,18.6-35.5,23.6c-9.7,2.6-12.5,3.2-12.9,3.2l0,0c0.1,0,0.2-0.1,0.5-0.2l0,0
		c3.2-1.6,19.5-10.4,21.1-14c0,0,12.1-4.9,20.1-8.8l0,0l0,0C185.5,56.8,188.1,55.4,188.9,54.7z"/>
	<path class="st8" d="M141.1,81.3c-0.2,0.1-0.4,0.2-0.5,0.2C140.5,81.5,140.7,81.4,141.1,81.3z"/>
	<path class="st8" d="M140.6,81.5L140.6,81.5L140.6,81.5L140.6,81.5z"/>
	<path class="st7" d="M140.6,77.6c0,0,10.2-2.5,11.8-17.3c0,0,1.3-3.7,4.2-3.5c0,0,15.1,1.3,18.5,0.8c0,0-16.5,2.9-17.3,4.4
		C157.1,63.7,150.9,75.2,140.6,77.6z"/>
	<path class="st7" d="M145.5,81.3c0,0,16.1,5.1,20,6.8c0,0-8.3,2.8-15.7-2.8c-7.4-5.6-8.3-1.3-8.3-1.3S141.7,81.8,145.5,81.3z"/>
	<path class="st7" d="M174,83.3c-2.8-0.4-13.3-6-13.3-6s-10.2,2.6-13.2,3.5C150.7,84.8,176.6,83.6,174,83.3z"/>
	<path class="st7" d="M178.2,66.6c0,0,7.4,1.3,16.9-7.5c0,0-5,11.1-20.2,13.1h-4.2L178.2,66.6z"/>
	<path class="st7" d="M169.3,72.8l-3.7,2.3c0,0,9.4,3.2,17.1,0C182.7,75,173.7,74.3,169.3,72.8z"/>
	<path class="st7" d="M164.2,75.6l-2,1.2c0,0,5.4,4.7,13.5,2.7C175.8,79.4,167.2,77.6,164.2,75.6z"/>
	<path class="st7" d="M142.1,85.5c0,0,5.6,8.2,12.4,8.1h2C156.4,93.5,142.1,83.8,142.1,85.5z"/>
	<path class="st7" d="M141.3,78.1c0,0,9.8-2.1,17.9-14.5c0,0,18.7-6.2,19.7-6.1l-17.9,8C161,65.5,150.2,78.4,141.3,78.1z"/>
	<path class="st7" d="M142.1,84.5c0,0,1.5-3.2,6.6,1.1c0,0,1.5,2,1.5,2.9C150.2,89.5,145.7,83.9,142.1,84.5z"/>
</g>
<rect x="24.3" y="-94.5" class="st5" width="77.6" height="77.6"/>
<rect x="111.3" y="-94.5" class="st9" width="77.6" height="77.6"/>
</svg>
